<?xml version="1.0" encoding="utf-8" standalone="no"?>
<!DOCTYPE svg PUBLIC "-//W3C//DTD SVG 1.1//EN"
  "http://www.w3.org/Graphics/SVG/1.1/DTD/svg11.dtd">
<svg height="360pt" version="1.1" viewBox="0 0 720 360" width="720pt" xmlns="http://www.w3.org/2000/svg" xmlns:xlink="http://www.w3.org/1999/xlink">
 <metadata>
  <rdf:RDF xmlns:cc="http://creativecommons.org/ns#" xmlns:dc="http://purl.org/dc/elements/1.1/" xmlns:rdf="http://www.w3.org/1999/02/22-rdf-syntax-ns#">
   <cc:Work>
    <dc:type rdf:resource="http://purl.org/dc/dcmitype/StillImage"/>
    <dc:date>2021-04-29T17:55:13.347833</dc:date>
    <dc:format>image/svg+xml</dc:format>
    <dc:creator>
     <cc:Agent>
      <dc:title>Matplotlib v3.4.1, https://matplotlib.org/</dc:title>
     </cc:Agent>
    </dc:creator>
   </cc:Work>
  </rdf:RDF>
 </metadata>
 <defs>
  <style type="text/css">*{stroke-linecap:butt;stroke-linejoin:round;}</style>
 </defs>
 <g id="figure_1">
  <g id="patch_1">
   <path d="M 0 360 
L 720 360 
L 720 0 
L 0 0 
z
" style="fill:#ffffff;"/>
  </g>
  <g id="axes_1">
   <g id="patch_2">
    <path d="M 39.925 332.2 
L 709.2 332.2 
L 709.2 14.095368 
L 39.925 14.095368 
z
" style="fill:#ffffff;"/>
   </g>
   <g id="matplotlib.axis_1">
    <g id="xtick_1">
     <g id="line2d_1">
      <path clip-path="url(#padeb0815c1)" d="M 126.500724 332.2 
L 126.500724 14.095368 
" style="fill:none;stroke:#cccccc;stroke-linecap:round;stroke-width:0.8;"/>
     </g>
     <g id="text_1">
      <!-- 0.01 -->
      <g style="fill:#262626;" transform="translate(115.367911 346.798438)scale(0.1 -0.1)">
       <defs>
        <path d="M 2034 4250 
Q 1547 4250 1301 3770 
Q 1056 3291 1056 2328 
Q 1056 1369 1301 889 
Q 1547 409 2034 409 
Q 2525 409 2770 889 
Q 3016 1369 3016 2328 
Q 3016 3291 2770 3770 
Q 2525 4250 2034 4250 
z
M 2034 4750 
Q 2819 4750 3233 4129 
Q 3647 3509 3647 2328 
Q 3647 1150 3233 529 
Q 2819 -91 2034 -91 
Q 1250 -91 836 529 
Q 422 1150 422 2328 
Q 422 3509 836 4129 
Q 1250 4750 2034 4750 
z
" id="DejaVuSans-30" transform="scale(0.015625)"/>
        <path d="M 684 794 
L 1344 794 
L 1344 0 
L 684 0 
L 684 794 
z
" id="DejaVuSans-2e" transform="scale(0.015625)"/>
        <path d="M 794 531 
L 1825 531 
L 1825 4091 
L 703 3866 
L 703 4441 
L 1819 4666 
L 2450 4666 
L 2450 531 
L 3481 531 
L 3481 0 
L 794 0 
L 794 531 
z
" id="DejaVuSans-31" transform="scale(0.015625)"/>
       </defs>
       <use xlink:href="#DejaVuSans-30"/>
       <use x="63.623047" xlink:href="#DejaVuSans-2e"/>
       <use x="95.410156" xlink:href="#DejaVuSans-30"/>
       <use x="159.033203" xlink:href="#DejaVuSans-31"/>
      </g>
     </g>
    </g>
    <g id="xtick_2">
     <g id="line2d_2">
      <path clip-path="url(#padeb0815c1)" d="M 224.859874 332.2 
L 224.859874 14.095368 
" style="fill:none;stroke:#cccccc;stroke-linecap:round;stroke-width:0.8;"/>
     </g>
     <g id="text_2">
      <!-- 0.02 -->
      <g style="fill:#262626;" transform="translate(213.727061 346.798438)scale(0.1 -0.1)">
       <defs>
        <path d="M 1228 531 
L 3431 531 
L 3431 0 
L 469 0 
L 469 531 
Q 828 903 1448 1529 
Q 2069 2156 2228 2338 
Q 2531 2678 2651 2914 
Q 2772 3150 2772 3378 
Q 2772 3750 2511 3984 
Q 2250 4219 1831 4219 
Q 1534 4219 1204 4116 
Q 875 4013 500 3803 
L 500 4441 
Q 881 4594 1212 4672 
Q 1544 4750 1819 4750 
Q 2544 4750 2975 4387 
Q 3406 4025 3406 3419 
Q 3406 3131 3298 2873 
Q 3191 2616 2906 2266 
Q 2828 2175 2409 1742 
Q 1991 1309 1228 531 
z
" id="DejaVuSans-32" transform="scale(0.015625)"/>
       </defs>
       <use xlink:href="#DejaVuSans-30"/>
       <use x="63.623047" xlink:href="#DejaVuSans-2e"/>
       <use x="95.410156" xlink:href="#DejaVuSans-30"/>
       <use x="159.033203" xlink:href="#DejaVuSans-32"/>
      </g>
     </g>
    </g>
    <g id="xtick_3">
     <g id="line2d_3">
      <path clip-path="url(#padeb0815c1)" d="M 323.219024 332.2 
L 323.219024 14.095368 
" style="fill:none;stroke:#cccccc;stroke-linecap:round;stroke-width:0.8;"/>
     </g>
     <g id="text_3">
      <!-- 0.03 -->
      <g style="fill:#262626;" transform="translate(312.086211 346.798438)scale(0.1 -0.1)">
       <defs>
        <path d="M 2597 2516 
Q 3050 2419 3304 2112 
Q 3559 1806 3559 1356 
Q 3559 666 3084 287 
Q 2609 -91 1734 -91 
Q 1441 -91 1130 -33 
Q 819 25 488 141 
L 488 750 
Q 750 597 1062 519 
Q 1375 441 1716 441 
Q 2309 441 2620 675 
Q 2931 909 2931 1356 
Q 2931 1769 2642 2001 
Q 2353 2234 1838 2234 
L 1294 2234 
L 1294 2753 
L 1863 2753 
Q 2328 2753 2575 2939 
Q 2822 3125 2822 3475 
Q 2822 3834 2567 4026 
Q 2313 4219 1838 4219 
Q 1578 4219 1281 4162 
Q 984 4106 628 3988 
L 628 4550 
Q 988 4650 1302 4700 
Q 1616 4750 1894 4750 
Q 2613 4750 3031 4423 
Q 3450 4097 3450 3541 
Q 3450 3153 3228 2886 
Q 3006 2619 2597 2516 
z
" id="DejaVuSans-33" transform="scale(0.015625)"/>
       </defs>
       <use xlink:href="#DejaVuSans-30"/>
       <use x="63.623047" xlink:href="#DejaVuSans-2e"/>
       <use x="95.410156" xlink:href="#DejaVuSans-30"/>
       <use x="159.033203" xlink:href="#DejaVuSans-33"/>
      </g>
     </g>
    </g>
    <g id="xtick_4">
     <g id="line2d_4">
      <path clip-path="url(#padeb0815c1)" d="M 421.578174 332.2 
L 421.578174 14.095368 
" style="fill:none;stroke:#cccccc;stroke-linecap:round;stroke-width:0.8;"/>
     </g>
     <g id="text_4">
      <!-- 0.04 -->
      <g style="fill:#262626;" transform="translate(410.445361 346.798438)scale(0.1 -0.1)">
       <defs>
        <path d="M 2419 4116 
L 825 1625 
L 2419 1625 
L 2419 4116 
z
M 2253 4666 
L 3047 4666 
L 3047 1625 
L 3713 1625 
L 3713 1100 
L 3047 1100 
L 3047 0 
L 2419 0 
L 2419 1100 
L 313 1100 
L 313 1709 
L 2253 4666 
z
" id="DejaVuSans-34" transform="scale(0.015625)"/>
       </defs>
       <use xlink:href="#DejaVuSans-30"/>
       <use x="63.623047" xlink:href="#DejaVuSans-2e"/>
       <use x="95.410156" xlink:href="#DejaVuSans-30"/>
       <use x="159.033203" xlink:href="#DejaVuSans-34"/>
      </g>
     </g>
    </g>
    <g id="xtick_5">
     <g id="line2d_5">
      <path clip-path="url(#padeb0815c1)" d="M 519.937324 332.2 
L 519.937324 14.095368 
" style="fill:none;stroke:#cccccc;stroke-linecap:round;stroke-width:0.8;"/>
     </g>
     <g id="text_5">
      <!-- 0.05 -->
      <g style="fill:#262626;" transform="translate(508.804511 346.798438)scale(0.1 -0.1)">
       <defs>
        <path d="M 691 4666 
L 3169 4666 
L 3169 4134 
L 1269 4134 
L 1269 2991 
Q 1406 3038 1543 3061 
Q 1681 3084 1819 3084 
Q 2600 3084 3056 2656 
Q 3513 2228 3513 1497 
Q 3513 744 3044 326 
Q 2575 -91 1722 -91 
Q 1428 -91 1123 -41 
Q 819 9 494 109 
L 494 744 
Q 775 591 1075 516 
Q 1375 441 1709 441 
Q 2250 441 2565 725 
Q 2881 1009 2881 1497 
Q 2881 1984 2565 2268 
Q 2250 2553 1709 2553 
Q 1456 2553 1204 2497 
Q 953 2441 691 2322 
L 691 4666 
z
" id="DejaVuSans-35" transform="scale(0.015625)"/>
       </defs>
       <use xlink:href="#DejaVuSans-30"/>
       <use x="63.623047" xlink:href="#DejaVuSans-2e"/>
       <use x="95.410156" xlink:href="#DejaVuSans-30"/>
       <use x="159.033203" xlink:href="#DejaVuSans-35"/>
      </g>
     </g>
    </g>
    <g id="xtick_6">
     <g id="line2d_6">
      <path clip-path="url(#padeb0815c1)" d="M 618.296474 332.2 
L 618.296474 14.095368 
" style="fill:none;stroke:#cccccc;stroke-linecap:round;stroke-width:0.8;"/>
     </g>
     <g id="text_6">
      <!-- 0.06 -->
      <g style="fill:#262626;" transform="translate(607.163661 346.798438)scale(0.1 -0.1)">
       <defs>
        <path d="M 2113 2584 
Q 1688 2584 1439 2293 
Q 1191 2003 1191 1497 
Q 1191 994 1439 701 
Q 1688 409 2113 409 
Q 2538 409 2786 701 
Q 3034 994 3034 1497 
Q 3034 2003 2786 2293 
Q 2538 2584 2113 2584 
z
M 3366 4563 
L 3366 3988 
Q 3128 4100 2886 4159 
Q 2644 4219 2406 4219 
Q 1781 4219 1451 3797 
Q 1122 3375 1075 2522 
Q 1259 2794 1537 2939 
Q 1816 3084 2150 3084 
Q 2853 3084 3261 2657 
Q 3669 2231 3669 1497 
Q 3669 778 3244 343 
Q 2819 -91 2113 -91 
Q 1303 -91 875 529 
Q 447 1150 447 2328 
Q 447 3434 972 4092 
Q 1497 4750 2381 4750 
Q 2619 4750 2861 4703 
Q 3103 4656 3366 4563 
z
" id="DejaVuSans-36" transform="scale(0.015625)"/>
       </defs>
       <use xlink:href="#DejaVuSans-30"/>
       <use x="63.623047" xlink:href="#DejaVuSans-2e"/>
       <use x="95.410156" xlink:href="#DejaVuSans-30"/>
       <use x="159.033203" xlink:href="#DejaVuSans-36"/>
      </g>
     </g>
    </g>
    <g id="text_7">
     <!-- tiempo (ms) -->
     <g style="fill:#262626;" transform="translate(344.067187 360.476562)scale(0.1 -0.1)">
      <defs>
       <path d="M 1172 4494 
L 1172 3500 
L 2356 3500 
L 2356 3053 
L 1172 3053 
L 1172 1153 
Q 1172 725 1289 603 
Q 1406 481 1766 481 
L 2356 481 
L 2356 0 
L 1766 0 
Q 1100 0 847 248 
Q 594 497 594 1153 
L 594 3053 
L 172 3053 
L 172 3500 
L 594 3500 
L 594 4494 
L 1172 4494 
z
" id="DejaVuSans-74" transform="scale(0.015625)"/>
       <path d="M 603 3500 
L 1178 3500 
L 1178 0 
L 603 0 
L 603 3500 
z
M 603 4863 
L 1178 4863 
L 1178 4134 
L 603 4134 
L 603 4863 
z
" id="DejaVuSans-69" transform="scale(0.015625)"/>
       <path d="M 3597 1894 
L 3597 1613 
L 953 1613 
Q 991 1019 1311 708 
Q 1631 397 2203 397 
Q 2534 397 2845 478 
Q 3156 559 3463 722 
L 3463 178 
Q 3153 47 2828 -22 
Q 2503 -91 2169 -91 
Q 1331 -91 842 396 
Q 353 884 353 1716 
Q 353 2575 817 3079 
Q 1281 3584 2069 3584 
Q 2775 3584 3186 3129 
Q 3597 2675 3597 1894 
z
M 3022 2063 
Q 3016 2534 2758 2815 
Q 2500 3097 2075 3097 
Q 1594 3097 1305 2825 
Q 1016 2553 972 2059 
L 3022 2063 
z
" id="DejaVuSans-65" transform="scale(0.015625)"/>
       <path d="M 3328 2828 
Q 3544 3216 3844 3400 
Q 4144 3584 4550 3584 
Q 5097 3584 5394 3201 
Q 5691 2819 5691 2113 
L 5691 0 
L 5113 0 
L 5113 2094 
Q 5113 2597 4934 2840 
Q 4756 3084 4391 3084 
Q 3944 3084 3684 2787 
Q 3425 2491 3425 1978 
L 3425 0 
L 2847 0 
L 2847 2094 
Q 2847 2600 2669 2842 
Q 2491 3084 2119 3084 
Q 1678 3084 1418 2786 
Q 1159 2488 1159 1978 
L 1159 0 
L 581 0 
L 581 3500 
L 1159 3500 
L 1159 2956 
Q 1356 3278 1631 3431 
Q 1906 3584 2284 3584 
Q 2666 3584 2933 3390 
Q 3200 3197 3328 2828 
z
" id="DejaVuSans-6d" transform="scale(0.015625)"/>
       <path d="M 1159 525 
L 1159 -1331 
L 581 -1331 
L 581 3500 
L 1159 3500 
L 1159 2969 
Q 1341 3281 1617 3432 
Q 1894 3584 2278 3584 
Q 2916 3584 3314 3078 
Q 3713 2572 3713 1747 
Q 3713 922 3314 415 
Q 2916 -91 2278 -91 
Q 1894 -91 1617 61 
Q 1341 213 1159 525 
z
M 3116 1747 
Q 3116 2381 2855 2742 
Q 2594 3103 2138 3103 
Q 1681 3103 1420 2742 
Q 1159 2381 1159 1747 
Q 1159 1113 1420 752 
Q 1681 391 2138 391 
Q 2594 391 2855 752 
Q 3116 1113 3116 1747 
z
" id="DejaVuSans-70" transform="scale(0.015625)"/>
       <path d="M 1959 3097 
Q 1497 3097 1228 2736 
Q 959 2375 959 1747 
Q 959 1119 1226 758 
Q 1494 397 1959 397 
Q 2419 397 2687 759 
Q 2956 1122 2956 1747 
Q 2956 2369 2687 2733 
Q 2419 3097 1959 3097 
z
M 1959 3584 
Q 2709 3584 3137 3096 
Q 3566 2609 3566 1747 
Q 3566 888 3137 398 
Q 2709 -91 1959 -91 
Q 1206 -91 779 398 
Q 353 888 353 1747 
Q 353 2609 779 3096 
Q 1206 3584 1959 3584 
z
" id="DejaVuSans-6f" transform="scale(0.015625)"/>
       <path id="DejaVuSans-20" transform="scale(0.015625)"/>
       <path d="M 1984 4856 
Q 1566 4138 1362 3434 
Q 1159 2731 1159 2009 
Q 1159 1288 1364 580 
Q 1569 -128 1984 -844 
L 1484 -844 
Q 1016 -109 783 600 
Q 550 1309 550 2009 
Q 550 2706 781 3412 
Q 1013 4119 1484 4856 
L 1984 4856 
z
" id="DejaVuSans-28" transform="scale(0.015625)"/>
       <path d="M 2834 3397 
L 2834 2853 
Q 2591 2978 2328 3040 
Q 2066 3103 1784 3103 
Q 1356 3103 1142 2972 
Q 928 2841 928 2578 
Q 928 2378 1081 2264 
Q 1234 2150 1697 2047 
L 1894 2003 
Q 2506 1872 2764 1633 
Q 3022 1394 3022 966 
Q 3022 478 2636 193 
Q 2250 -91 1575 -91 
Q 1294 -91 989 -36 
Q 684 19 347 128 
L 347 722 
Q 666 556 975 473 
Q 1284 391 1588 391 
Q 1994 391 2212 530 
Q 2431 669 2431 922 
Q 2431 1156 2273 1281 
Q 2116 1406 1581 1522 
L 1381 1569 
Q 847 1681 609 1914 
Q 372 2147 372 2553 
Q 372 3047 722 3315 
Q 1072 3584 1716 3584 
Q 2034 3584 2315 3537 
Q 2597 3491 2834 3397 
z
" id="DejaVuSans-73" transform="scale(0.015625)"/>
       <path d="M 513 4856 
L 1013 4856 
Q 1481 4119 1714 3412 
Q 1947 2706 1947 2009 
Q 1947 1309 1714 600 
Q 1481 -109 1013 -844 
L 513 -844 
Q 928 -128 1133 580 
Q 1338 1288 1338 2009 
Q 1338 2731 1133 3434 
Q 928 4138 513 4856 
z
" id="DejaVuSans-29" transform="scale(0.015625)"/>
      </defs>
      <use xlink:href="#DejaVuSans-74"/>
      <use x="39.208984" xlink:href="#DejaVuSans-69"/>
      <use x="66.992188" xlink:href="#DejaVuSans-65"/>
      <use x="128.515625" xlink:href="#DejaVuSans-6d"/>
      <use x="225.927734" xlink:href="#DejaVuSans-70"/>
      <use x="289.404297" xlink:href="#DejaVuSans-6f"/>
      <use x="350.585938" xlink:href="#DejaVuSans-20"/>
      <use x="382.373047" xlink:href="#DejaVuSans-28"/>
      <use x="421.386719" xlink:href="#DejaVuSans-6d"/>
      <use x="518.798828" xlink:href="#DejaVuSans-73"/>
      <use x="570.898438" xlink:href="#DejaVuSans-29"/>
     </g>
    </g>
   </g>
   <g id="matplotlib.axis_2">
    <g id="ytick_1">
     <g id="line2d_7">
      <path clip-path="url(#padeb0815c1)" d="M 39.925 281.860082 
L 709.2 281.860082 
" style="fill:none;stroke:#cccccc;stroke-linecap:round;stroke-width:0.8;"/>
     </g>
     <g id="text_8">
      <!-- 0.00 -->
      <g style="fill:#262626;" transform="translate(10.659375 285.659301)scale(0.1 -0.1)">
       <use xlink:href="#DejaVuSans-30"/>
       <use x="63.623047" xlink:href="#DejaVuSans-2e"/>
       <use x="95.410156" xlink:href="#DejaVuSans-30"/>
       <use x="159.033203" xlink:href="#DejaVuSans-30"/>
      </g>
     </g>
    </g>
    <g id="ytick_2">
     <g id="line2d_8">
      <path clip-path="url(#padeb0815c1)" d="M 39.925 228.448379 
L 709.2 228.448379 
" style="fill:none;stroke:#cccccc;stroke-linecap:round;stroke-width:0.8;"/>
     </g>
     <g id="text_9">
      <!-- 0.02 -->
      <g style="fill:#262626;" transform="translate(10.659375 232.247597)scale(0.1 -0.1)">
       <use xlink:href="#DejaVuSans-30"/>
       <use x="63.623047" xlink:href="#DejaVuSans-2e"/>
       <use x="95.410156" xlink:href="#DejaVuSans-30"/>
       <use x="159.033203" xlink:href="#DejaVuSans-32"/>
      </g>
     </g>
    </g>
    <g id="ytick_3">
     <g id="line2d_9">
      <path clip-path="url(#padeb0815c1)" d="M 39.925 175.036675 
L 709.2 175.036675 
" style="fill:none;stroke:#cccccc;stroke-linecap:round;stroke-width:0.8;"/>
     </g>
     <g id="text_10">
      <!-- 0.04 -->
      <g style="fill:#262626;" transform="translate(10.659375 178.835894)scale(0.1 -0.1)">
       <use xlink:href="#DejaVuSans-30"/>
       <use x="63.623047" xlink:href="#DejaVuSans-2e"/>
       <use x="95.410156" xlink:href="#DejaVuSans-30"/>
       <use x="159.033203" xlink:href="#DejaVuSans-34"/>
      </g>
     </g>
    </g>
    <g id="ytick_4">
     <g id="line2d_10">
      <path clip-path="url(#padeb0815c1)" d="M 39.925 121.624972 
L 709.2 121.624972 
" style="fill:none;stroke:#cccccc;stroke-linecap:round;stroke-width:0.8;"/>
     </g>
     <g id="text_11">
      <!-- 0.06 -->
      <g style="fill:#262626;" transform="translate(10.659375 125.42419)scale(0.1 -0.1)">
       <use xlink:href="#DejaVuSans-30"/>
       <use x="63.623047" xlink:href="#DejaVuSans-2e"/>
       <use x="95.410156" xlink:href="#DejaVuSans-30"/>
       <use x="159.033203" xlink:href="#DejaVuSans-36"/>
      </g>
     </g>
    </g>
    <g id="ytick_5">
     <g id="line2d_11">
      <path clip-path="url(#padeb0815c1)" d="M 39.925 68.213268 
L 709.2 68.213268 
" style="fill:none;stroke:#cccccc;stroke-linecap:round;stroke-width:0.8;"/>
     </g>
     <g id="text_12">
      <!-- 0.08 -->
      <g style="fill:#262626;" transform="translate(10.659375 72.012487)scale(0.1 -0.1)">
       <defs>
        <path d="M 2034 2216 
Q 1584 2216 1326 1975 
Q 1069 1734 1069 1313 
Q 1069 891 1326 650 
Q 1584 409 2034 409 
Q 2484 409 2743 651 
Q 3003 894 3003 1313 
Q 3003 1734 2745 1975 
Q 2488 2216 2034 2216 
z
M 1403 2484 
Q 997 2584 770 2862 
Q 544 3141 544 3541 
Q 544 4100 942 4425 
Q 1341 4750 2034 4750 
Q 2731 4750 3128 4425 
Q 3525 4100 3525 3541 
Q 3525 3141 3298 2862 
Q 3072 2584 2669 2484 
Q 3125 2378 3379 2068 
Q 3634 1759 3634 1313 
Q 3634 634 3220 271 
Q 2806 -91 2034 -91 
Q 1263 -91 848 271 
Q 434 634 434 1313 
Q 434 1759 690 2068 
Q 947 2378 1403 2484 
z
M 1172 3481 
Q 1172 3119 1398 2916 
Q 1625 2713 2034 2713 
Q 2441 2713 2670 2916 
Q 2900 3119 2900 3481 
Q 2900 3844 2670 4047 
Q 2441 4250 2034 4250 
Q 1625 4250 1398 4047 
Q 1172 3844 1172 3481 
z
" id="DejaVuSans-38" transform="scale(0.015625)"/>
       </defs>
       <use xlink:href="#DejaVuSans-30"/>
       <use x="63.623047" xlink:href="#DejaVuSans-2e"/>
       <use x="95.410156" xlink:href="#DejaVuSans-30"/>
       <use x="159.033203" xlink:href="#DejaVuSans-38"/>
      </g>
     </g>
    </g>
    <g id="ytick_6">
     <g id="line2d_12">
      <path clip-path="url(#padeb0815c1)" d="M 39.925 14.801564 
L 709.2 14.801564 
" style="fill:none;stroke:#cccccc;stroke-linecap:round;stroke-width:0.8;"/>
     </g>
     <g id="text_13">
      <!-- 0.10 -->
      <g style="fill:#262626;" transform="translate(10.659375 18.600783)scale(0.1 -0.1)">
       <use xlink:href="#DejaVuSans-30"/>
       <use x="63.623047" xlink:href="#DejaVuSans-2e"/>
       <use x="95.410156" xlink:href="#DejaVuSans-31"/>
       <use x="159.033203" xlink:href="#DejaVuSans-30"/>
      </g>
     </g>
    </g>
    <g id="text_14">
     <!-- complejidad -->
     <g style="fill:#262626;" transform="translate(4.579688 203.657059)rotate(-90)scale(0.1 -0.1)">
      <defs>
       <path d="M 3122 3366 
L 3122 2828 
Q 2878 2963 2633 3030 
Q 2388 3097 2138 3097 
Q 1578 3097 1268 2742 
Q 959 2388 959 1747 
Q 959 1106 1268 751 
Q 1578 397 2138 397 
Q 2388 397 2633 464 
Q 2878 531 3122 666 
L 3122 134 
Q 2881 22 2623 -34 
Q 2366 -91 2075 -91 
Q 1284 -91 818 406 
Q 353 903 353 1747 
Q 353 2603 823 3093 
Q 1294 3584 2113 3584 
Q 2378 3584 2631 3529 
Q 2884 3475 3122 3366 
z
" id="DejaVuSans-63" transform="scale(0.015625)"/>
       <path d="M 603 4863 
L 1178 4863 
L 1178 0 
L 603 0 
L 603 4863 
z
" id="DejaVuSans-6c" transform="scale(0.015625)"/>
       <path d="M 603 3500 
L 1178 3500 
L 1178 -63 
Q 1178 -731 923 -1031 
Q 669 -1331 103 -1331 
L -116 -1331 
L -116 -844 
L 38 -844 
Q 366 -844 484 -692 
Q 603 -541 603 -63 
L 603 3500 
z
M 603 4863 
L 1178 4863 
L 1178 4134 
L 603 4134 
L 603 4863 
z
" id="DejaVuSans-6a" transform="scale(0.015625)"/>
       <path d="M 2906 2969 
L 2906 4863 
L 3481 4863 
L 3481 0 
L 2906 0 
L 2906 525 
Q 2725 213 2448 61 
Q 2172 -91 1784 -91 
Q 1150 -91 751 415 
Q 353 922 353 1747 
Q 353 2572 751 3078 
Q 1150 3584 1784 3584 
Q 2172 3584 2448 3432 
Q 2725 3281 2906 2969 
z
M 947 1747 
Q 947 1113 1208 752 
Q 1469 391 1925 391 
Q 2381 391 2643 752 
Q 2906 1113 2906 1747 
Q 2906 2381 2643 2742 
Q 2381 3103 1925 3103 
Q 1469 3103 1208 2742 
Q 947 2381 947 1747 
z
" id="DejaVuSans-64" transform="scale(0.015625)"/>
       <path d="M 2194 1759 
Q 1497 1759 1228 1600 
Q 959 1441 959 1056 
Q 959 750 1161 570 
Q 1363 391 1709 391 
Q 2188 391 2477 730 
Q 2766 1069 2766 1631 
L 2766 1759 
L 2194 1759 
z
M 3341 1997 
L 3341 0 
L 2766 0 
L 2766 531 
Q 2569 213 2275 61 
Q 1981 -91 1556 -91 
Q 1019 -91 701 211 
Q 384 513 384 1019 
Q 384 1609 779 1909 
Q 1175 2209 1959 2209 
L 2766 2209 
L 2766 2266 
Q 2766 2663 2505 2880 
Q 2244 3097 1772 3097 
Q 1472 3097 1187 3025 
Q 903 2953 641 2809 
L 641 3341 
Q 956 3463 1253 3523 
Q 1550 3584 1831 3584 
Q 2591 3584 2966 3190 
Q 3341 2797 3341 1997 
z
" id="DejaVuSans-61" transform="scale(0.015625)"/>
      </defs>
      <use xlink:href="#DejaVuSans-63"/>
      <use x="54.980469" xlink:href="#DejaVuSans-6f"/>
      <use x="116.162109" xlink:href="#DejaVuSans-6d"/>
      <use x="213.574219" xlink:href="#DejaVuSans-70"/>
      <use x="277.050781" xlink:href="#DejaVuSans-6c"/>
      <use x="304.833984" xlink:href="#DejaVuSans-65"/>
      <use x="366.357422" xlink:href="#DejaVuSans-6a"/>
      <use x="394.140625" xlink:href="#DejaVuSans-69"/>
      <use x="421.923828" xlink:href="#DejaVuSans-64"/>
      <use x="485.400391" xlink:href="#DejaVuSans-61"/>
      <use x="546.679688" xlink:href="#DejaVuSans-64"/>
     </g>
    </g>
   </g>
   <g id="PathCollection_1">
    <defs>
     <path d="M 0 3 
C 0.795609 3 1.55874 2.683901 2.12132 2.12132 
C 2.683901 1.55874 3 0.795609 3 0 
C 3 -0.795609 2.683901 -1.55874 2.12132 -2.12132 
C 1.55874 -2.683901 0.795609 -3 0 -3 
C -0.795609 -3 -1.55874 -2.683901 -2.12132 -2.12132 
C -2.683901 -1.55874 -3 -0.795609 -3 0 
C -3 0.795609 -2.683901 1.55874 -2.12132 2.12132 
C -1.55874 2.683901 -0.795609 3 0 3 
z
" id="m90308c01a5" style="stroke:#1f77b4;stroke-opacity:0.8;"/>
    </defs>
    <g clip-path="url(#padeb0815c1)">
     <use style="fill:#1f77b4;fill-opacity:0.8;stroke:#1f77b4;stroke-opacity:0.8;" x="40.524991" xlink:href="#m90308c01a5" y="281.860082"/>
     <use style="fill:#1f77b4;fill-opacity:0.8;stroke:#1f77b4;stroke-opacity:0.8;" x="40.603678" xlink:href="#m90308c01a5" y="281.860081"/>
     <use style="fill:#1f77b4;fill-opacity:0.8;stroke:#1f77b4;stroke-opacity:0.8;" x="39.925" xlink:href="#m90308c01a5" y="281.86008"/>
     <use style="fill:#1f77b4;fill-opacity:0.8;stroke:#1f77b4;stroke-opacity:0.8;" x="45.19705" xlink:href="#m90308c01a5" y="281.860079"/>
     <use style="fill:#1f77b4;fill-opacity:0.8;stroke:#1f77b4;stroke-opacity:0.8;" x="47.803568" xlink:href="#m90308c01a5" y="281.860075"/>
     <use style="fill:#1f77b4;fill-opacity:0.8;stroke:#1f77b4;stroke-opacity:0.8;" x="48.413395" xlink:href="#m90308c01a5" y="281.860067"/>
     <use style="fill:#1f77b4;fill-opacity:0.8;stroke:#1f77b4;stroke-opacity:0.8;" x="85.750528" xlink:href="#m90308c01a5" y="281.860052"/>
     <use style="fill:#1f77b4;fill-opacity:0.8;stroke:#1f77b4;stroke-opacity:0.8;" x="55.928034" xlink:href="#m90308c01a5" y="281.860022"/>
     <use style="fill:#1f77b4;fill-opacity:0.8;stroke:#1f77b4;stroke-opacity:0.8;" x="62.911533" xlink:href="#m90308c01a5" y="281.859962"/>
     <use style="fill:#1f77b4;fill-opacity:0.8;stroke:#1f77b4;stroke-opacity:0.8;" x="72.904823" xlink:href="#m90308c01a5" y="281.859841"/>
     <use style="fill:#1f77b4;fill-opacity:0.8;stroke:#1f77b4;stroke-opacity:0.8;" x="97.59297" xlink:href="#m90308c01a5" y="281.859599"/>
     <use style="fill:#1f77b4;fill-opacity:0.8;stroke:#1f77b4;stroke-opacity:0.8;" x="94.179907" xlink:href="#m90308c01a5" y="281.859116"/>
     <use style="fill:#1f77b4;fill-opacity:0.8;stroke:#1f77b4;stroke-opacity:0.8;" x="160.355943" xlink:href="#m90308c01a5" y="281.85815"/>
     <use style="fill:#1f77b4;fill-opacity:0.8;stroke:#1f77b4;stroke-opacity:0.8;" x="182.457244" xlink:href="#m90308c01a5" y="281.856217"/>
     <use style="fill:#1f77b4;fill-opacity:0.8;stroke:#1f77b4;stroke-opacity:0.8;" x="264.242877" xlink:href="#m90308c01a5" y="281.852352"/>
     <use style="fill:#1f77b4;fill-opacity:0.8;stroke:#1f77b4;stroke-opacity:0.8;" x="244.984156" xlink:href="#m90308c01a5" y="281.844622"/>
     <use style="fill:#1f77b4;fill-opacity:0.8;stroke:#1f77b4;stroke-opacity:0.8;" x="355.825082" xlink:href="#m90308c01a5" y="281.829161"/>
     <use style="fill:#1f77b4;fill-opacity:0.8;stroke:#1f77b4;stroke-opacity:0.8;" x="199.758619" xlink:href="#m90308c01a5" y="281.79824"/>
     <use style="fill:#1f77b4;fill-opacity:0.8;stroke:#1f77b4;stroke-opacity:0.8;" x="202.748737" xlink:href="#m90308c01a5" y="281.736398"/>
     <use style="fill:#1f77b4;fill-opacity:0.8;stroke:#1f77b4;stroke-opacity:0.8;" x="226.148379" xlink:href="#m90308c01a5" y="281.612714"/>
     <use style="fill:#1f77b4;fill-opacity:0.8;stroke:#1f77b4;stroke-opacity:0.8;" x="278.642657" xlink:href="#m90308c01a5" y="281.365345"/>
     <use style="fill:#1f77b4;fill-opacity:0.8;stroke:#1f77b4;stroke-opacity:0.8;" x="286.432702" xlink:href="#m90308c01a5" y="280.870608"/>
     <use style="fill:#1f77b4;fill-opacity:0.8;stroke:#1f77b4;stroke-opacity:0.8;" x="378.801779" xlink:href="#m90308c01a5" y="279.881134"/>
     <use style="fill:#1f77b4;fill-opacity:0.8;stroke:#1f77b4;stroke-opacity:0.8;" x="391.696664" xlink:href="#m90308c01a5" y="277.902185"/>
     <use style="fill:#1f77b4;fill-opacity:0.8;stroke:#1f77b4;stroke-opacity:0.8;" x="448.922017" xlink:href="#m90308c01a5" y="273.944288"/>
     <use style="fill:#1f77b4;fill-opacity:0.8;stroke:#1f77b4;stroke-opacity:0.8;" x="492.259059" xlink:href="#m90308c01a5" y="266.028494"/>
     <use style="fill:#1f77b4;fill-opacity:0.8;stroke:#1f77b4;stroke-opacity:0.8;" x="603.650796" xlink:href="#m90308c01a5" y="250.196906"/>
     <use style="fill:#1f77b4;fill-opacity:0.8;stroke:#1f77b4;stroke-opacity:0.8;" x="643.968212" xlink:href="#m90308c01a5" y="218.533729"/>
     <use style="fill:#1f77b4;fill-opacity:0.8;stroke:#1f77b4;stroke-opacity:0.8;" x="597.149256" xlink:href="#m90308c01a5" y="155.207376"/>
     <use style="fill:#1f77b4;fill-opacity:0.8;stroke:#1f77b4;stroke-opacity:0.8;" x="709.2" xlink:href="#m90308c01a5" y="28.55467"/>
    </g>
   </g>
   <g id="PolyCollection_1">
    <defs>
     <path d="M 39.925 -75.915398 
L 39.925 -42.259301 
L 46.685354 -43.940312 
L 53.445707 -45.621375 
L 60.206061 -47.527327 
L 66.966414 -49.33563 
L 73.726768 -51.245962 
L 80.487121 -52.935067 
L 87.247475 -54.792003 
L 94.007828 -56.898577 
L 100.768182 -58.688795 
L 107.528535 -60.430282 
L 114.288889 -62.039307 
L 121.049242 -63.720226 
L 127.809596 -65.272388 
L 134.569949 -66.783137 
L 141.330303 -68.376775 
L 148.090657 -69.8067 
L 154.85101 -71.289117 
L 161.611364 -72.662501 
L 168.371717 -74.189429 
L 175.132071 -75.766159 
L 181.892424 -77.0976 
L 188.652778 -78.352602 
L 195.413131 -79.056589 
L 202.173485 -79.557891 
L 208.933838 -80.116513 
L 215.694192 -80.387073 
L 222.454545 -80.636076 
L 229.214899 -80.914965 
L 235.975253 -81.160717 
L 242.735606 -81.387452 
L 249.49596 -81.567712 
L 256.256313 -81.747973 
L 263.016667 -81.929084 
L 269.77702 -82.125331 
L 276.537374 -82.34153 
L 283.297727 -82.541851 
L 290.058081 -82.716866 
L 296.818434 -82.89188 
L 303.578788 -83.067558 
L 310.339141 -83.259493 
L 317.099495 -83.480181 
L 323.859848 -83.700869 
L 330.620202 -83.921557 
L 337.380556 -84.142245 
L 344.140909 -84.362933 
L 350.901263 -84.569745 
L 357.661616 -84.755423 
L 364.42197 -84.941101 
L 371.182323 -85.126779 
L 377.942677 -85.312532 
L 384.70303 -85.49844 
L 391.463384 -85.684663 
L 398.223737 -85.870886 
L 404.984091 -86.057109 
L 411.744444 -86.243332 
L 418.504798 -86.429555 
L 425.265152 -86.615777 
L 432.025505 -86.802 
L 438.785859 -86.988223 
L 445.546212 -87.174446 
L 452.306566 -87.360669 
L 459.066919 -87.546892 
L 465.827273 -87.733115 
L 472.587626 -87.919337 
L 479.34798 -88.10556 
L 486.108333 -88.291783 
L 492.868687 -88.478006 
L 499.62904 -88.664229 
L 506.389394 -88.850452 
L 513.149747 -89.036675 
L 519.910101 -89.222898 
L 526.670455 -89.40912 
L 533.430808 -89.595343 
L 540.191162 -89.781566 
L 546.951515 -89.967789 
L 553.711869 -90.154012 
L 560.472222 -90.340235 
L 567.232576 -90.526458 
L 573.992929 -90.71268 
L 580.753283 -90.898903 
L 587.513636 -91.085126 
L 594.27399 -91.276086 
L 601.034343 -91.472499 
L 607.794697 -91.668912 
L 614.555051 -91.865325 
L 621.315404 -92.061738 
L 628.075758 -92.25815 
L 634.836111 -92.454563 
L 641.596465 -92.647715 
L 648.356818 -92.826508 
L 655.117172 -93.005301 
L 661.877525 -93.184093 
L 668.637879 -93.362886 
L 675.398232 -93.541679 
L 682.158586 -93.720471 
L 688.918939 -93.899581 
L 695.679293 -94.086309 
L 702.439646 -94.285034 
L 709.2 -94.483759 
L 709.2 -236.977802 
L 709.2 -236.977802 
L 702.439646 -235.23051 
L 695.679293 -233.418392 
L 688.918939 -231.520637 
L 682.158586 -229.620146 
L 675.398232 -227.719656 
L 668.637879 -225.887355 
L 661.877525 -224.057135 
L 655.117172 -222.226915 
L 648.356818 -220.396694 
L 641.596465 -218.566474 
L 634.836111 -216.736254 
L 628.075758 -214.90215 
L 621.315404 -213.03392 
L 614.555051 -211.165691 
L 607.794697 -209.29441 
L 601.034343 -207.262725 
L 594.27399 -205.162651 
L 587.513636 -203.187489 
L 580.753283 -201.15565 
L 573.992929 -199.200541 
L 567.232576 -197.300372 
L 560.472222 -195.400202 
L 553.711869 -193.513768 
L 546.951515 -191.7844 
L 540.191162 -190.055033 
L 533.430808 -188.325666 
L 526.670455 -186.486009 
L 519.910101 -184.628297 
L 513.149747 -182.746312 
L 506.389394 -180.804291 
L 499.62904 -178.86227 
L 492.868687 -176.920249 
L 486.108333 -174.978228 
L 479.34798 -173.035848 
L 472.587626 -171.092168 
L 465.827273 -169.148488 
L 459.066919 -167.204808 
L 452.306566 -165.261128 
L 445.546212 -163.501233 
L 438.785859 -161.912684 
L 432.025505 -160.022725 
L 425.265152 -158.105672 
L 418.504798 -156.183593 
L 411.744444 -154.25784 
L 404.984091 -152.332088 
L 398.223737 -150.486716 
L 391.463384 -148.576378 
L 384.70303 -146.5703 
L 377.942677 -144.65239 
L 371.182323 -142.727274 
L 364.42197 -140.802158 
L 357.661616 -138.922659 
L 350.901263 -137.250471 
L 344.140909 -135.330737 
L 337.380556 -133.221401 
L 330.620202 -131.17658 
L 323.859848 -129.251464 
L 317.099495 -127.2629 
L 310.339141 -125.356004 
L 303.578788 -123.339728 
L 296.818434 -121.389382 
L 290.058081 -119.346616 
L 283.297727 -117.704871 
L 276.537374 -115.818612 
L 269.77702 -114.235086 
L 263.016667 -112.131223 
L 256.256313 -110.24744 
L 249.49596 -108.424009 
L 242.735606 -106.646007 
L 235.975253 -105.15835 
L 229.214899 -103.244486 
L 222.454545 -101.546876 
L 215.694192 -100.103279 
L 208.933838 -98.584477 
L 202.173485 -96.965479 
L 195.413131 -95.274126 
L 188.652778 -93.660529 
L 181.892424 -92.12983 
L 175.132071 -90.572182 
L 168.371717 -89.203931 
L 161.611364 -87.703228 
L 154.85101 -86.164532 
L 148.090657 -84.72474 
L 141.330303 -83.399261 
L 134.569949 -82.122415 
L 127.809596 -80.919407 
L 121.049242 -79.717071 
L 114.288889 -78.950296 
L 107.528535 -78.243843 
L 100.768182 -77.919362 
L 94.007828 -77.652993 
L 87.247475 -77.32648 
L 80.487121 -77.117385 
L 73.726768 -76.827088 
L 66.966414 -76.600534 
L 60.206061 -76.443928 
L 53.445707 -76.268113 
L 46.685354 -76.091755 
L 39.925 -75.915398 
z
" id="m5c1a0b90f3" style="stroke:#ffffff;stroke-opacity:0.15;"/>
    </defs>
    <g clip-path="url(#padeb0815c1)">
     <use style="fill:#1f77b4;fill-opacity:0.15;stroke:#ffffff;stroke-opacity:0.15;" x="0" xlink:href="#m5c1a0b90f3" y="360"/>
    </g>
   </g>
   <g id="line2d_13">
    <path clip-path="url(#padeb0815c1)" d="M 39.925 299.845916 
L 46.685354 298.705403 
L 53.445707 297.564889 
L 60.206061 296.424376 
L 66.966414 295.283862 
L 73.726768 294.143349 
L 80.487121 293.002835 
L 87.247475 291.862322 
L 94.007828 290.721808 
L 100.768182 289.581295 
L 107.528535 288.440781 
L 114.288889 287.300268 
L 121.049242 286.159754 
L 127.809596 285.019241 
L 134.569949 283.878727 
L 141.330303 282.738214 
L 148.090657 281.5977 
L 154.85101 280.457187 
L 161.611364 279.316673 
L 168.371717 278.17616 
L 175.132071 277.035646 
L 181.892424 275.895133 
L 188.652778 274.754619 
L 195.413131 273.614106 
L 202.173485 272.473592 
L 208.933838 271.333079 
L 215.694192 270.192565 
L 222.454545 269.052052 
L 229.214899 267.911538 
L 235.975253 266.771025 
L 242.735606 265.630511 
L 249.49596 264.489998 
L 256.256313 263.349484 
L 263.016667 262.208971 
L 269.77702 261.068457 
L 276.537374 259.927944 
L 283.297727 258.78743 
L 290.058081 257.646917 
L 296.818434 256.506403 
L 303.578788 255.36589 
L 310.339141 254.225376 
L 317.099495 253.084863 
L 323.859848 251.944349 
L 330.620202 250.803836 
L 337.380556 249.663322 
L 344.140909 248.522809 
L 350.901263 247.382295 
L 357.661616 246.241782 
L 364.42197 245.101268 
L 371.182323 243.960755 
L 377.942677 242.820241 
L 384.70303 241.679728 
L 391.463384 240.539214 
L 398.223737 239.398701 
L 404.984091 238.258187 
L 411.744444 237.117674 
L 418.504798 235.97716 
L 425.265152 234.836647 
L 432.025505 233.696133 
L 438.785859 232.55562 
L 445.546212 231.415106 
L 452.306566 230.274593 
L 459.066919 229.134079 
L 465.827273 227.993566 
L 472.587626 226.853052 
L 479.34798 225.712539 
L 486.108333 224.572025 
L 492.868687 223.431512 
L 499.62904 222.290998 
L 506.389394 221.150485 
L 513.149747 220.009971 
L 519.910101 218.869458 
L 526.670455 217.728944 
L 533.430808 216.588431 
L 540.191162 215.447917 
L 546.951515 214.307404 
L 553.711869 213.16689 
L 560.472222 212.026377 
L 567.232576 210.885863 
L 573.992929 209.74535 
L 580.753283 208.604836 
L 587.513636 207.464323 
L 594.27399 206.323809 
L 601.034343 205.183296 
L 607.794697 204.042782 
L 614.555051 202.902269 
L 621.315404 201.761755 
L 628.075758 200.621242 
L 634.836111 199.480728 
L 641.596465 198.340215 
L 648.356818 197.199701 
L 655.117172 196.059188 
L 661.877525 194.918674 
L 668.637879 193.778161 
L 675.398232 192.637647 
L 682.158586 191.497134 
L 688.918939 190.35662 
L 695.679293 189.216107 
L 702.439646 188.075593 
L 709.2 186.93508 
" style="fill:none;stroke:#1f77b4;stroke-linecap:round;stroke-width:2.25;"/>
   </g>
   <g id="patch_3">
    <path d="M 39.925 332.2 
L 39.925 14.095368 
" style="fill:none;stroke:#cccccc;stroke-linecap:square;stroke-linejoin:miter;stroke-width:0.8;"/>
   </g>
   <g id="patch_4">
    <path d="M 39.925 332.2 
L 709.2 332.2 
" style="fill:none;stroke:#cccccc;stroke-linecap:square;stroke-linejoin:miter;stroke-width:0.8;"/>
   </g>
   <g id="text_15">
    <!-- Correlación entre tiempos de ejecución y -->
    <g style="fill:#262626;" transform="translate(251.323438 -5.918007)scale(0.12 -0.12)">
     <defs>
      <path d="M 4122 4306 
L 4122 3641 
Q 3803 3938 3442 4084 
Q 3081 4231 2675 4231 
Q 1875 4231 1450 3742 
Q 1025 3253 1025 2328 
Q 1025 1406 1450 917 
Q 1875 428 2675 428 
Q 3081 428 3442 575 
Q 3803 722 4122 1019 
L 4122 359 
Q 3791 134 3420 21 
Q 3050 -91 2638 -91 
Q 1578 -91 968 557 
Q 359 1206 359 2328 
Q 359 3453 968 4101 
Q 1578 4750 2638 4750 
Q 3056 4750 3426 4639 
Q 3797 4528 4122 4306 
z
" id="DejaVuSans-43" transform="scale(0.015625)"/>
      <path d="M 2631 2963 
Q 2534 3019 2420 3045 
Q 2306 3072 2169 3072 
Q 1681 3072 1420 2755 
Q 1159 2438 1159 1844 
L 1159 0 
L 581 0 
L 581 3500 
L 1159 3500 
L 1159 2956 
Q 1341 3275 1631 3429 
Q 1922 3584 2338 3584 
Q 2397 3584 2469 3576 
Q 2541 3569 2628 3553 
L 2631 2963 
z
" id="DejaVuSans-72" transform="scale(0.015625)"/>
      <path d="M 1959 3097 
Q 1497 3097 1228 2736 
Q 959 2375 959 1747 
Q 959 1119 1226 758 
Q 1494 397 1959 397 
Q 2419 397 2687 759 
Q 2956 1122 2956 1747 
Q 2956 2369 2687 2733 
Q 2419 3097 1959 3097 
z
M 1959 3584 
Q 2709 3584 3137 3096 
Q 3566 2609 3566 1747 
Q 3566 888 3137 398 
Q 2709 -91 1959 -91 
Q 1206 -91 779 398 
Q 353 888 353 1747 
Q 353 2609 779 3096 
Q 1206 3584 1959 3584 
z
M 2394 5119 
L 3016 5119 
L 1998 3944 
L 1519 3944 
L 2394 5119 
z
" id="DejaVuSans-f3" transform="scale(0.015625)"/>
      <path d="M 3513 2113 
L 3513 0 
L 2938 0 
L 2938 2094 
Q 2938 2591 2744 2837 
Q 2550 3084 2163 3084 
Q 1697 3084 1428 2787 
Q 1159 2491 1159 1978 
L 1159 0 
L 581 0 
L 581 3500 
L 1159 3500 
L 1159 2956 
Q 1366 3272 1645 3428 
Q 1925 3584 2291 3584 
Q 2894 3584 3203 3211 
Q 3513 2838 3513 2113 
z
" id="DejaVuSans-6e" transform="scale(0.015625)"/>
      <path d="M 544 1381 
L 544 3500 
L 1119 3500 
L 1119 1403 
Q 1119 906 1312 657 
Q 1506 409 1894 409 
Q 2359 409 2629 706 
Q 2900 1003 2900 1516 
L 2900 3500 
L 3475 3500 
L 3475 0 
L 2900 0 
L 2900 538 
Q 2691 219 2414 64 
Q 2138 -91 1772 -91 
Q 1169 -91 856 284 
Q 544 659 544 1381 
z
M 1991 3584 
L 1991 3584 
z
" id="DejaVuSans-75" transform="scale(0.015625)"/>
      <path d="M 2059 -325 
Q 1816 -950 1584 -1140 
Q 1353 -1331 966 -1331 
L 506 -1331 
L 506 -850 
L 844 -850 
Q 1081 -850 1212 -737 
Q 1344 -625 1503 -206 
L 1606 56 
L 191 3500 
L 800 3500 
L 1894 763 
L 2988 3500 
L 3597 3500 
L 2059 -325 
z
" id="DejaVuSans-79" transform="scale(0.015625)"/>
     </defs>
     <use xlink:href="#DejaVuSans-43"/>
     <use x="69.824219" xlink:href="#DejaVuSans-6f"/>
     <use x="131.005859" xlink:href="#DejaVuSans-72"/>
     <use x="170.369141" xlink:href="#DejaVuSans-72"/>
     <use x="209.232422" xlink:href="#DejaVuSans-65"/>
     <use x="270.755859" xlink:href="#DejaVuSans-6c"/>
     <use x="298.539062" xlink:href="#DejaVuSans-61"/>
     <use x="359.818359" xlink:href="#DejaVuSans-63"/>
     <use x="414.798828" xlink:href="#DejaVuSans-69"/>
     <use x="442.582031" xlink:href="#DejaVuSans-f3"/>
     <use x="503.763672" xlink:href="#DejaVuSans-6e"/>
     <use x="567.142578" xlink:href="#DejaVuSans-20"/>
     <use x="598.929688" xlink:href="#DejaVuSans-65"/>
     <use x="660.453125" xlink:href="#DejaVuSans-6e"/>
     <use x="723.832031" xlink:href="#DejaVuSans-74"/>
     <use x="763.041016" xlink:href="#DejaVuSans-72"/>
     <use x="801.904297" xlink:href="#DejaVuSans-65"/>
     <use x="863.427734" xlink:href="#DejaVuSans-20"/>
     <use x="895.214844" xlink:href="#DejaVuSans-74"/>
     <use x="934.423828" xlink:href="#DejaVuSans-69"/>
     <use x="962.207031" xlink:href="#DejaVuSans-65"/>
     <use x="1023.730469" xlink:href="#DejaVuSans-6d"/>
     <use x="1121.142578" xlink:href="#DejaVuSans-70"/>
     <use x="1184.619141" xlink:href="#DejaVuSans-6f"/>
     <use x="1245.800781" xlink:href="#DejaVuSans-73"/>
     <use x="1297.900391" xlink:href="#DejaVuSans-20"/>
     <use x="1329.6875" xlink:href="#DejaVuSans-64"/>
     <use x="1393.164062" xlink:href="#DejaVuSans-65"/>
     <use x="1454.6875" xlink:href="#DejaVuSans-20"/>
     <use x="1486.474609" xlink:href="#DejaVuSans-65"/>
     <use x="1547.998047" xlink:href="#DejaVuSans-6a"/>
     <use x="1575.78125" xlink:href="#DejaVuSans-65"/>
     <use x="1637.304688" xlink:href="#DejaVuSans-63"/>
     <use x="1692.285156" xlink:href="#DejaVuSans-75"/>
     <use x="1755.664062" xlink:href="#DejaVuSans-63"/>
     <use x="1810.644531" xlink:href="#DejaVuSans-69"/>
     <use x="1838.427734" xlink:href="#DejaVuSans-f3"/>
     <use x="1899.609375" xlink:href="#DejaVuSans-6e"/>
     <use x="1962.988281" xlink:href="#DejaVuSans-20"/>
     <use x="1994.775391" xlink:href="#DejaVuSans-79"/>
    </g>
    <!--  complejidad teórica de BT en peor-caso-bt -->
    <g style="fill:#262626;" transform="translate(245.276563 8.095368)scale(0.12 -0.12)">
     <defs>
      <path d="M 1259 2228 
L 1259 519 
L 2272 519 
Q 2781 519 3026 730 
Q 3272 941 3272 1375 
Q 3272 1813 3026 2020 
Q 2781 2228 2272 2228 
L 1259 2228 
z
M 1259 4147 
L 1259 2741 
L 2194 2741 
Q 2656 2741 2882 2914 
Q 3109 3088 3109 3444 
Q 3109 3797 2882 3972 
Q 2656 4147 2194 4147 
L 1259 4147 
z
M 628 4666 
L 2241 4666 
Q 2963 4666 3353 4366 
Q 3744 4066 3744 3513 
Q 3744 3084 3544 2831 
Q 3344 2578 2956 2516 
Q 3422 2416 3680 2098 
Q 3938 1781 3938 1306 
Q 3938 681 3513 340 
Q 3088 0 2303 0 
L 628 0 
L 628 4666 
z
" id="DejaVuSans-42" transform="scale(0.015625)"/>
      <path d="M -19 4666 
L 3928 4666 
L 3928 4134 
L 2272 4134 
L 2272 0 
L 1638 0 
L 1638 4134 
L -19 4134 
L -19 4666 
z
" id="DejaVuSans-54" transform="scale(0.015625)"/>
      <path d="M 313 2009 
L 1997 2009 
L 1997 1497 
L 313 1497 
L 313 2009 
z
" id="DejaVuSans-2d" transform="scale(0.015625)"/>
      <path d="M 3116 1747 
Q 3116 2381 2855 2742 
Q 2594 3103 2138 3103 
Q 1681 3103 1420 2742 
Q 1159 2381 1159 1747 
Q 1159 1113 1420 752 
Q 1681 391 2138 391 
Q 2594 391 2855 752 
Q 3116 1113 3116 1747 
z
M 1159 2969 
Q 1341 3281 1617 3432 
Q 1894 3584 2278 3584 
Q 2916 3584 3314 3078 
Q 3713 2572 3713 1747 
Q 3713 922 3314 415 
Q 2916 -91 2278 -91 
Q 1894 -91 1617 61 
Q 1341 213 1159 525 
L 1159 0 
L 581 0 
L 581 4863 
L 1159 4863 
L 1159 2969 
z
" id="DejaVuSans-62" transform="scale(0.015625)"/>
     </defs>
     <use xlink:href="#DejaVuSans-20"/>
     <use x="31.787109" xlink:href="#DejaVuSans-63"/>
     <use x="86.767578" xlink:href="#DejaVuSans-6f"/>
     <use x="147.949219" xlink:href="#DejaVuSans-6d"/>
     <use x="245.361328" xlink:href="#DejaVuSans-70"/>
     <use x="308.837891" xlink:href="#DejaVuSans-6c"/>
     <use x="336.621094" xlink:href="#DejaVuSans-65"/>
     <use x="398.144531" xlink:href="#DejaVuSans-6a"/>
     <use x="425.927734" xlink:href="#DejaVuSans-69"/>
     <use x="453.710938" xlink:href="#DejaVuSans-64"/>
     <use x="517.1875" xlink:href="#DejaVuSans-61"/>
     <use x="578.466797" xlink:href="#DejaVuSans-64"/>
     <use x="641.943359" xlink:href="#DejaVuSans-20"/>
     <use x="673.730469" xlink:href="#DejaVuSans-74"/>
     <use x="712.939453" xlink:href="#DejaVuSans-65"/>
     <use x="774.462891" xlink:href="#DejaVuSans-f3"/>
     <use x="835.644531" xlink:href="#DejaVuSans-72"/>
     <use x="876.757812" xlink:href="#DejaVuSans-69"/>
     <use x="904.541016" xlink:href="#DejaVuSans-63"/>
     <use x="959.521484" xlink:href="#DejaVuSans-61"/>
     <use x="1020.800781" xlink:href="#DejaVuSans-20"/>
     <use x="1052.587891" xlink:href="#DejaVuSans-64"/>
     <use x="1116.064453" xlink:href="#DejaVuSans-65"/>
     <use x="1177.587891" xlink:href="#DejaVuSans-20"/>
     <use x="1209.375" xlink:href="#DejaVuSans-42"/>
     <use x="1277.978516" xlink:href="#DejaVuSans-54"/>
     <use x="1339.0625" xlink:href="#DejaVuSans-20"/>
     <use x="1370.849609" xlink:href="#DejaVuSans-65"/>
     <use x="1432.373047" xlink:href="#DejaVuSans-6e"/>
     <use x="1495.751953" xlink:href="#DejaVuSans-20"/>
     <use x="1527.539062" xlink:href="#DejaVuSans-70"/>
     <use x="1591.015625" xlink:href="#DejaVuSans-65"/>
     <use x="1652.539062" xlink:href="#DejaVuSans-6f"/>
     <use x="1713.720703" xlink:href="#DejaVuSans-72"/>
     <use x="1748.458984" xlink:href="#DejaVuSans-2d"/>
     <use x="1784.542969" xlink:href="#DejaVuSans-63"/>
     <use x="1839.523438" xlink:href="#DejaVuSans-61"/>
     <use x="1900.802734" xlink:href="#DejaVuSans-73"/>
     <use x="1952.902344" xlink:href="#DejaVuSans-6f"/>
     <use x="2015.958984" xlink:href="#DejaVuSans-2d"/>
     <use x="2052.042969" xlink:href="#DejaVuSans-62"/>
     <use x="2115.519531" xlink:href="#DejaVuSans-74"/>
    </g>
   </g>
  </g>
 </g>
 <defs>
  <clipPath id="padeb0815c1">
   <rect height="318.104632" width="669.275" x="39.925" y="14.095368"/>
  </clipPath>
 </defs>
</svg>
