<?xml version="1.0" encoding="utf-8" standalone="no"?>
<!DOCTYPE svg PUBLIC "-//W3C//DTD SVG 1.1//EN"
  "http://www.w3.org/Graphics/SVG/1.1/DTD/svg11.dtd">
<svg height="360pt" version="1.1" viewBox="0 0 720 360" width="720pt" xmlns="http://www.w3.org/2000/svg" xmlns:xlink="http://www.w3.org/1999/xlink">
 <metadata>
  <rdf:RDF xmlns:cc="http://creativecommons.org/ns#" xmlns:dc="http://purl.org/dc/elements/1.1/" xmlns:rdf="http://www.w3.org/1999/02/22-rdf-syntax-ns#">
   <cc:Work>
    <dc:type rdf:resource="http://purl.org/dc/dcmitype/StillImage"/>
    <dc:date>2021-04-29T17:55:14.457479</dc:date>
    <dc:format>image/svg+xml</dc:format>
    <dc:creator>
     <cc:Agent>
      <dc:title>Matplotlib v3.4.1, https://matplotlib.org/</dc:title>
     </cc:Agent>
    </dc:creator>
   </cc:Work>
  </rdf:RDF>
 </metadata>
 <defs>
  <style type="text/css">*{stroke-linecap:butt;stroke-linejoin:round;}</style>
 </defs>
 <g id="figure_1">
  <g id="patch_1">
   <path d="M 0 360 
L 720 360 
L 720 0 
L 0 0 
z
" style="fill:#ffffff;"/>
  </g>
  <g id="axes_1">
   <g id="patch_2">
    <path d="M 90 315 
L 648 315 
L 648 43.2 
L 90 43.2 
z
" style="fill:#ffffff;"/>
   </g>
   <g id="matplotlib.axis_1">
    <g id="xtick_1">
     <g id="line2d_1">
      <path clip-path="url(#p70d457acad)" d="M 171.727273 315 
L 171.727273 43.2 
" style="fill:none;stroke:#cccccc;stroke-linecap:round;stroke-width:0.8;"/>
     </g>
     <g id="text_1">
      <!-- 200 -->
      <g style="fill:#262626;" transform="translate(162.183523 329.598437)scale(0.1 -0.1)">
       <defs>
        <path d="M 1228 531 
L 3431 531 
L 3431 0 
L 469 0 
L 469 531 
Q 828 903 1448 1529 
Q 2069 2156 2228 2338 
Q 2531 2678 2651 2914 
Q 2772 3150 2772 3378 
Q 2772 3750 2511 3984 
Q 2250 4219 1831 4219 
Q 1534 4219 1204 4116 
Q 875 4013 500 3803 
L 500 4441 
Q 881 4594 1212 4672 
Q 1544 4750 1819 4750 
Q 2544 4750 2975 4387 
Q 3406 4025 3406 3419 
Q 3406 3131 3298 2873 
Q 3191 2616 2906 2266 
Q 2828 2175 2409 1742 
Q 1991 1309 1228 531 
z
" id="DejaVuSans-32" transform="scale(0.015625)"/>
        <path d="M 2034 4250 
Q 1547 4250 1301 3770 
Q 1056 3291 1056 2328 
Q 1056 1369 1301 889 
Q 1547 409 2034 409 
Q 2525 409 2770 889 
Q 3016 1369 3016 2328 
Q 3016 3291 2770 3770 
Q 2525 4250 2034 4250 
z
M 2034 4750 
Q 2819 4750 3233 4129 
Q 3647 3509 3647 2328 
Q 3647 1150 3233 529 
Q 2819 -91 2034 -91 
Q 1250 -91 836 529 
Q 422 1150 422 2328 
Q 422 3509 836 4129 
Q 1250 4750 2034 4750 
z
" id="DejaVuSans-30" transform="scale(0.015625)"/>
       </defs>
       <use xlink:href="#DejaVuSans-32"/>
       <use x="63.623047" xlink:href="#DejaVuSans-30"/>
       <use x="127.246094" xlink:href="#DejaVuSans-30"/>
      </g>
     </g>
    </g>
    <g id="xtick_2">
     <g id="line2d_2">
      <path clip-path="url(#p70d457acad)" d="M 284.454545 315 
L 284.454545 43.2 
" style="fill:none;stroke:#cccccc;stroke-linecap:round;stroke-width:0.8;"/>
     </g>
     <g id="text_2">
      <!-- 400 -->
      <g style="fill:#262626;" transform="translate(274.910795 329.598437)scale(0.1 -0.1)">
       <defs>
        <path d="M 2419 4116 
L 825 1625 
L 2419 1625 
L 2419 4116 
z
M 2253 4666 
L 3047 4666 
L 3047 1625 
L 3713 1625 
L 3713 1100 
L 3047 1100 
L 3047 0 
L 2419 0 
L 2419 1100 
L 313 1100 
L 313 1709 
L 2253 4666 
z
" id="DejaVuSans-34" transform="scale(0.015625)"/>
       </defs>
       <use xlink:href="#DejaVuSans-34"/>
       <use x="63.623047" xlink:href="#DejaVuSans-30"/>
       <use x="127.246094" xlink:href="#DejaVuSans-30"/>
      </g>
     </g>
    </g>
    <g id="xtick_3">
     <g id="line2d_3">
      <path clip-path="url(#p70d457acad)" d="M 397.181818 315 
L 397.181818 43.2 
" style="fill:none;stroke:#cccccc;stroke-linecap:round;stroke-width:0.8;"/>
     </g>
     <g id="text_3">
      <!-- 600 -->
      <g style="fill:#262626;" transform="translate(387.638068 329.598437)scale(0.1 -0.1)">
       <defs>
        <path d="M 2113 2584 
Q 1688 2584 1439 2293 
Q 1191 2003 1191 1497 
Q 1191 994 1439 701 
Q 1688 409 2113 409 
Q 2538 409 2786 701 
Q 3034 994 3034 1497 
Q 3034 2003 2786 2293 
Q 2538 2584 2113 2584 
z
M 3366 4563 
L 3366 3988 
Q 3128 4100 2886 4159 
Q 2644 4219 2406 4219 
Q 1781 4219 1451 3797 
Q 1122 3375 1075 2522 
Q 1259 2794 1537 2939 
Q 1816 3084 2150 3084 
Q 2853 3084 3261 2657 
Q 3669 2231 3669 1497 
Q 3669 778 3244 343 
Q 2819 -91 2113 -91 
Q 1303 -91 875 529 
Q 447 1150 447 2328 
Q 447 3434 972 4092 
Q 1497 4750 2381 4750 
Q 2619 4750 2861 4703 
Q 3103 4656 3366 4563 
z
" id="DejaVuSans-36" transform="scale(0.015625)"/>
       </defs>
       <use xlink:href="#DejaVuSans-36"/>
       <use x="63.623047" xlink:href="#DejaVuSans-30"/>
       <use x="127.246094" xlink:href="#DejaVuSans-30"/>
      </g>
     </g>
    </g>
    <g id="xtick_4">
     <g id="line2d_4">
      <path clip-path="url(#p70d457acad)" d="M 509.909091 315 
L 509.909091 43.2 
" style="fill:none;stroke:#cccccc;stroke-linecap:round;stroke-width:0.8;"/>
     </g>
     <g id="text_4">
      <!-- 800 -->
      <g style="fill:#262626;" transform="translate(500.365341 329.598437)scale(0.1 -0.1)">
       <defs>
        <path d="M 2034 2216 
Q 1584 2216 1326 1975 
Q 1069 1734 1069 1313 
Q 1069 891 1326 650 
Q 1584 409 2034 409 
Q 2484 409 2743 651 
Q 3003 894 3003 1313 
Q 3003 1734 2745 1975 
Q 2488 2216 2034 2216 
z
M 1403 2484 
Q 997 2584 770 2862 
Q 544 3141 544 3541 
Q 544 4100 942 4425 
Q 1341 4750 2034 4750 
Q 2731 4750 3128 4425 
Q 3525 4100 3525 3541 
Q 3525 3141 3298 2862 
Q 3072 2584 2669 2484 
Q 3125 2378 3379 2068 
Q 3634 1759 3634 1313 
Q 3634 634 3220 271 
Q 2806 -91 2034 -91 
Q 1263 -91 848 271 
Q 434 634 434 1313 
Q 434 1759 690 2068 
Q 947 2378 1403 2484 
z
M 1172 3481 
Q 1172 3119 1398 2916 
Q 1625 2713 2034 2713 
Q 2441 2713 2670 2916 
Q 2900 3119 2900 3481 
Q 2900 3844 2670 4047 
Q 2441 4250 2034 4250 
Q 1625 4250 1398 4047 
Q 1172 3844 1172 3481 
z
" id="DejaVuSans-38" transform="scale(0.015625)"/>
       </defs>
       <use xlink:href="#DejaVuSans-38"/>
       <use x="63.623047" xlink:href="#DejaVuSans-30"/>
       <use x="127.246094" xlink:href="#DejaVuSans-30"/>
      </g>
     </g>
    </g>
    <g id="xtick_5">
     <g id="line2d_5">
      <path clip-path="url(#p70d457acad)" d="M 622.636364 315 
L 622.636364 43.2 
" style="fill:none;stroke:#cccccc;stroke-linecap:round;stroke-width:0.8;"/>
     </g>
     <g id="text_5">
      <!-- 1000 -->
      <g style="fill:#262626;" transform="translate(609.911364 329.598437)scale(0.1 -0.1)">
       <defs>
        <path d="M 794 531 
L 1825 531 
L 1825 4091 
L 703 3866 
L 703 4441 
L 1819 4666 
L 2450 4666 
L 2450 531 
L 3481 531 
L 3481 0 
L 794 0 
L 794 531 
z
" id="DejaVuSans-31" transform="scale(0.015625)"/>
       </defs>
       <use xlink:href="#DejaVuSans-31"/>
       <use x="63.623047" xlink:href="#DejaVuSans-30"/>
       <use x="127.246094" xlink:href="#DejaVuSans-30"/>
       <use x="190.869141" xlink:href="#DejaVuSans-30"/>
      </g>
     </g>
    </g>
    <g id="text_6">
     <!-- n -->
     <g style="fill:#262626;" transform="translate(365.83125 343.276563)scale(0.1 -0.1)">
      <defs>
       <path d="M 3513 2113 
L 3513 0 
L 2938 0 
L 2938 2094 
Q 2938 2591 2744 2837 
Q 2550 3084 2163 3084 
Q 1697 3084 1428 2787 
Q 1159 2491 1159 1978 
L 1159 0 
L 581 0 
L 581 3500 
L 1159 3500 
L 1159 2956 
Q 1366 3272 1645 3428 
Q 1925 3584 2291 3584 
Q 2894 3584 3203 3211 
Q 3513 2838 3513 2113 
z
" id="DejaVuSans-6e" transform="scale(0.015625)"/>
      </defs>
      <use xlink:href="#DejaVuSans-6e"/>
     </g>
    </g>
   </g>
   <g id="matplotlib.axis_2">
    <g id="ytick_1">
     <g id="line2d_6">
      <path clip-path="url(#p70d457acad)" d="M 90 302.889556 
L 648 302.889556 
" style="fill:none;stroke:#cccccc;stroke-linecap:round;stroke-width:0.8;"/>
     </g>
     <g id="text_7">
      <!-- 0 -->
      <g style="fill:#262626;" transform="translate(76.6375 306.688775)scale(0.1 -0.1)">
       <use xlink:href="#DejaVuSans-30"/>
      </g>
     </g>
    </g>
    <g id="ytick_2">
     <g id="line2d_7">
      <path clip-path="url(#p70d457acad)" d="M 90 257.179044 
L 648 257.179044 
" style="fill:none;stroke:#cccccc;stroke-linecap:round;stroke-width:0.8;"/>
     </g>
     <g id="text_8">
      <!-- 1000 -->
      <g style="fill:#262626;" transform="translate(57.55 260.978263)scale(0.1 -0.1)">
       <use xlink:href="#DejaVuSans-31"/>
       <use x="63.623047" xlink:href="#DejaVuSans-30"/>
       <use x="127.246094" xlink:href="#DejaVuSans-30"/>
       <use x="190.869141" xlink:href="#DejaVuSans-30"/>
      </g>
     </g>
    </g>
    <g id="ytick_3">
     <g id="line2d_8">
      <path clip-path="url(#p70d457acad)" d="M 90 211.468532 
L 648 211.468532 
" style="fill:none;stroke:#cccccc;stroke-linecap:round;stroke-width:0.8;"/>
     </g>
     <g id="text_9">
      <!-- 2000 -->
      <g style="fill:#262626;" transform="translate(57.55 215.26775)scale(0.1 -0.1)">
       <use xlink:href="#DejaVuSans-32"/>
       <use x="63.623047" xlink:href="#DejaVuSans-30"/>
       <use x="127.246094" xlink:href="#DejaVuSans-30"/>
       <use x="190.869141" xlink:href="#DejaVuSans-30"/>
      </g>
     </g>
    </g>
    <g id="ytick_4">
     <g id="line2d_9">
      <path clip-path="url(#p70d457acad)" d="M 90 165.758019 
L 648 165.758019 
" style="fill:none;stroke:#cccccc;stroke-linecap:round;stroke-width:0.8;"/>
     </g>
     <g id="text_10">
      <!-- 3000 -->
      <g style="fill:#262626;" transform="translate(57.55 169.557238)scale(0.1 -0.1)">
       <defs>
        <path d="M 2597 2516 
Q 3050 2419 3304 2112 
Q 3559 1806 3559 1356 
Q 3559 666 3084 287 
Q 2609 -91 1734 -91 
Q 1441 -91 1130 -33 
Q 819 25 488 141 
L 488 750 
Q 750 597 1062 519 
Q 1375 441 1716 441 
Q 2309 441 2620 675 
Q 2931 909 2931 1356 
Q 2931 1769 2642 2001 
Q 2353 2234 1838 2234 
L 1294 2234 
L 1294 2753 
L 1863 2753 
Q 2328 2753 2575 2939 
Q 2822 3125 2822 3475 
Q 2822 3834 2567 4026 
Q 2313 4219 1838 4219 
Q 1578 4219 1281 4162 
Q 984 4106 628 3988 
L 628 4550 
Q 988 4650 1302 4700 
Q 1616 4750 1894 4750 
Q 2613 4750 3031 4423 
Q 3450 4097 3450 3541 
Q 3450 3153 3228 2886 
Q 3006 2619 2597 2516 
z
" id="DejaVuSans-33" transform="scale(0.015625)"/>
       </defs>
       <use xlink:href="#DejaVuSans-33"/>
       <use x="63.623047" xlink:href="#DejaVuSans-30"/>
       <use x="127.246094" xlink:href="#DejaVuSans-30"/>
       <use x="190.869141" xlink:href="#DejaVuSans-30"/>
      </g>
     </g>
    </g>
    <g id="ytick_5">
     <g id="line2d_10">
      <path clip-path="url(#p70d457acad)" d="M 90 120.047507 
L 648 120.047507 
" style="fill:none;stroke:#cccccc;stroke-linecap:round;stroke-width:0.8;"/>
     </g>
     <g id="text_11">
      <!-- 4000 -->
      <g style="fill:#262626;" transform="translate(57.55 123.846726)scale(0.1 -0.1)">
       <use xlink:href="#DejaVuSans-34"/>
       <use x="63.623047" xlink:href="#DejaVuSans-30"/>
       <use x="127.246094" xlink:href="#DejaVuSans-30"/>
       <use x="190.869141" xlink:href="#DejaVuSans-30"/>
      </g>
     </g>
    </g>
    <g id="ytick_6">
     <g id="line2d_11">
      <path clip-path="url(#p70d457acad)" d="M 90 74.336995 
L 648 74.336995 
" style="fill:none;stroke:#cccccc;stroke-linecap:round;stroke-width:0.8;"/>
     </g>
     <g id="text_12">
      <!-- 5000 -->
      <g style="fill:#262626;" transform="translate(57.55 78.136214)scale(0.1 -0.1)">
       <defs>
        <path d="M 691 4666 
L 3169 4666 
L 3169 4134 
L 1269 4134 
L 1269 2991 
Q 1406 3038 1543 3061 
Q 1681 3084 1819 3084 
Q 2600 3084 3056 2656 
Q 3513 2228 3513 1497 
Q 3513 744 3044 326 
Q 2575 -91 1722 -91 
Q 1428 -91 1123 -41 
Q 819 9 494 109 
L 494 744 
Q 775 591 1075 516 
Q 1375 441 1709 441 
Q 2250 441 2565 725 
Q 2881 1009 2881 1497 
Q 2881 1984 2565 2268 
Q 2250 2553 1709 2553 
Q 1456 2553 1204 2497 
Q 953 2441 691 2322 
L 691 4666 
z
" id="DejaVuSans-35" transform="scale(0.015625)"/>
       </defs>
       <use xlink:href="#DejaVuSans-35"/>
       <use x="63.623047" xlink:href="#DejaVuSans-30"/>
       <use x="127.246094" xlink:href="#DejaVuSans-30"/>
       <use x="190.869141" xlink:href="#DejaVuSans-30"/>
      </g>
     </g>
    </g>
    <g id="text_13">
     <!-- tiempo (ms) -->
     <g style="fill:#262626;" transform="translate(51.470312 209.595313)rotate(-90)scale(0.1 -0.1)">
      <defs>
       <path d="M 1172 4494 
L 1172 3500 
L 2356 3500 
L 2356 3053 
L 1172 3053 
L 1172 1153 
Q 1172 725 1289 603 
Q 1406 481 1766 481 
L 2356 481 
L 2356 0 
L 1766 0 
Q 1100 0 847 248 
Q 594 497 594 1153 
L 594 3053 
L 172 3053 
L 172 3500 
L 594 3500 
L 594 4494 
L 1172 4494 
z
" id="DejaVuSans-74" transform="scale(0.015625)"/>
       <path d="M 603 3500 
L 1178 3500 
L 1178 0 
L 603 0 
L 603 3500 
z
M 603 4863 
L 1178 4863 
L 1178 4134 
L 603 4134 
L 603 4863 
z
" id="DejaVuSans-69" transform="scale(0.015625)"/>
       <path d="M 3597 1894 
L 3597 1613 
L 953 1613 
Q 991 1019 1311 708 
Q 1631 397 2203 397 
Q 2534 397 2845 478 
Q 3156 559 3463 722 
L 3463 178 
Q 3153 47 2828 -22 
Q 2503 -91 2169 -91 
Q 1331 -91 842 396 
Q 353 884 353 1716 
Q 353 2575 817 3079 
Q 1281 3584 2069 3584 
Q 2775 3584 3186 3129 
Q 3597 2675 3597 1894 
z
M 3022 2063 
Q 3016 2534 2758 2815 
Q 2500 3097 2075 3097 
Q 1594 3097 1305 2825 
Q 1016 2553 972 2059 
L 3022 2063 
z
" id="DejaVuSans-65" transform="scale(0.015625)"/>
       <path d="M 3328 2828 
Q 3544 3216 3844 3400 
Q 4144 3584 4550 3584 
Q 5097 3584 5394 3201 
Q 5691 2819 5691 2113 
L 5691 0 
L 5113 0 
L 5113 2094 
Q 5113 2597 4934 2840 
Q 4756 3084 4391 3084 
Q 3944 3084 3684 2787 
Q 3425 2491 3425 1978 
L 3425 0 
L 2847 0 
L 2847 2094 
Q 2847 2600 2669 2842 
Q 2491 3084 2119 3084 
Q 1678 3084 1418 2786 
Q 1159 2488 1159 1978 
L 1159 0 
L 581 0 
L 581 3500 
L 1159 3500 
L 1159 2956 
Q 1356 3278 1631 3431 
Q 1906 3584 2284 3584 
Q 2666 3584 2933 3390 
Q 3200 3197 3328 2828 
z
" id="DejaVuSans-6d" transform="scale(0.015625)"/>
       <path d="M 1159 525 
L 1159 -1331 
L 581 -1331 
L 581 3500 
L 1159 3500 
L 1159 2969 
Q 1341 3281 1617 3432 
Q 1894 3584 2278 3584 
Q 2916 3584 3314 3078 
Q 3713 2572 3713 1747 
Q 3713 922 3314 415 
Q 2916 -91 2278 -91 
Q 1894 -91 1617 61 
Q 1341 213 1159 525 
z
M 3116 1747 
Q 3116 2381 2855 2742 
Q 2594 3103 2138 3103 
Q 1681 3103 1420 2742 
Q 1159 2381 1159 1747 
Q 1159 1113 1420 752 
Q 1681 391 2138 391 
Q 2594 391 2855 752 
Q 3116 1113 3116 1747 
z
" id="DejaVuSans-70" transform="scale(0.015625)"/>
       <path d="M 1959 3097 
Q 1497 3097 1228 2736 
Q 959 2375 959 1747 
Q 959 1119 1226 758 
Q 1494 397 1959 397 
Q 2419 397 2687 759 
Q 2956 1122 2956 1747 
Q 2956 2369 2687 2733 
Q 2419 3097 1959 3097 
z
M 1959 3584 
Q 2709 3584 3137 3096 
Q 3566 2609 3566 1747 
Q 3566 888 3137 398 
Q 2709 -91 1959 -91 
Q 1206 -91 779 398 
Q 353 888 353 1747 
Q 353 2609 779 3096 
Q 1206 3584 1959 3584 
z
" id="DejaVuSans-6f" transform="scale(0.015625)"/>
       <path id="DejaVuSans-20" transform="scale(0.015625)"/>
       <path d="M 1984 4856 
Q 1566 4138 1362 3434 
Q 1159 2731 1159 2009 
Q 1159 1288 1364 580 
Q 1569 -128 1984 -844 
L 1484 -844 
Q 1016 -109 783 600 
Q 550 1309 550 2009 
Q 550 2706 781 3412 
Q 1013 4119 1484 4856 
L 1984 4856 
z
" id="DejaVuSans-28" transform="scale(0.015625)"/>
       <path d="M 2834 3397 
L 2834 2853 
Q 2591 2978 2328 3040 
Q 2066 3103 1784 3103 
Q 1356 3103 1142 2972 
Q 928 2841 928 2578 
Q 928 2378 1081 2264 
Q 1234 2150 1697 2047 
L 1894 2003 
Q 2506 1872 2764 1633 
Q 3022 1394 3022 966 
Q 3022 478 2636 193 
Q 2250 -91 1575 -91 
Q 1294 -91 989 -36 
Q 684 19 347 128 
L 347 722 
Q 666 556 975 473 
Q 1284 391 1588 391 
Q 1994 391 2212 530 
Q 2431 669 2431 922 
Q 2431 1156 2273 1281 
Q 2116 1406 1581 1522 
L 1381 1569 
Q 847 1681 609 1914 
Q 372 2147 372 2553 
Q 372 3047 722 3315 
Q 1072 3584 1716 3584 
Q 2034 3584 2315 3537 
Q 2597 3491 2834 3397 
z
" id="DejaVuSans-73" transform="scale(0.015625)"/>
       <path d="M 513 4856 
L 1013 4856 
Q 1481 4119 1714 3412 
Q 1947 2706 1947 2009 
Q 1947 1309 1714 600 
Q 1481 -109 1013 -844 
L 513 -844 
Q 928 -128 1133 580 
Q 1338 1288 1338 2009 
Q 1338 2731 1133 3434 
Q 928 4138 513 4856 
z
" id="DejaVuSans-29" transform="scale(0.015625)"/>
      </defs>
      <use xlink:href="#DejaVuSans-74"/>
      <use x="39.208984" xlink:href="#DejaVuSans-69"/>
      <use x="66.992188" xlink:href="#DejaVuSans-65"/>
      <use x="128.515625" xlink:href="#DejaVuSans-6d"/>
      <use x="225.927734" xlink:href="#DejaVuSans-70"/>
      <use x="289.404297" xlink:href="#DejaVuSans-6f"/>
      <use x="350.585938" xlink:href="#DejaVuSans-20"/>
      <use x="382.373047" xlink:href="#DejaVuSans-28"/>
      <use x="421.386719" xlink:href="#DejaVuSans-6d"/>
      <use x="518.798828" xlink:href="#DejaVuSans-73"/>
      <use x="570.898438" xlink:href="#DejaVuSans-29"/>
     </g>
    </g>
   </g>
   <g id="PathCollection_1">
    <defs>
     <path d="M 0 3 
C 0.795609 3 1.55874 2.683901 2.12132 2.12132 
C 2.683901 1.55874 3 0.795609 3 0 
C 3 -0.795609 2.683901 -1.55874 2.12132 -2.12132 
C 1.55874 -2.683901 0.795609 -3 0 -3 
C -0.795609 -3 -1.55874 -2.683901 -2.12132 -2.12132 
C -2.683901 -1.55874 -3 -0.795609 -3 0 
C -3 0.795609 -2.683901 1.55874 -2.12132 2.12132 
C -1.55874 2.683901 -0.795609 3 0 3 
z
" id="mc73eecea74" style="stroke:#ffffff;stroke-width:0.48;"/>
    </defs>
    <g clip-path="url(#p70d457acad)">
     <use style="fill:#1f77b4;stroke:#ffffff;stroke-width:0.48;" x="115.363636" xlink:href="#mc73eecea74" y="302.645455"/>
     <use style="fill:#1f77b4;stroke:#ffffff;stroke-width:0.48;" x="121" xlink:href="#mc73eecea74" y="302.363282"/>
     <use style="fill:#1f77b4;stroke:#ffffff;stroke-width:0.48;" x="126.636364" xlink:href="#mc73eecea74" y="302.358692"/>
     <use style="fill:#1f77b4;stroke:#ffffff;stroke-width:0.48;" x="132.272727" xlink:href="#mc73eecea74" y="302.404005"/>
     <use style="fill:#1f77b4;stroke:#ffffff;stroke-width:0.48;" x="137.909091" xlink:href="#mc73eecea74" y="302.077468"/>
     <use style="fill:#1f77b4;stroke:#ffffff;stroke-width:0.48;" x="143.545455" xlink:href="#mc73eecea74" y="302.083113"/>
     <use style="fill:#1f77b4;stroke:#ffffff;stroke-width:0.48;" x="149.181818" xlink:href="#mc73eecea74" y="301.625944"/>
     <use style="fill:#1f77b4;stroke:#ffffff;stroke-width:0.48;" x="154.818182" xlink:href="#mc73eecea74" y="301.806359"/>
     <use style="fill:#1f77b4;stroke:#ffffff;stroke-width:0.48;" x="160.454545" xlink:href="#mc73eecea74" y="301.772556"/>
     <use style="fill:#1f77b4;stroke:#ffffff;stroke-width:0.48;" x="166.090909" xlink:href="#mc73eecea74" y="301.489704"/>
     <use style="fill:#1f77b4;stroke:#ffffff;stroke-width:0.48;" x="171.727273" xlink:href="#mc73eecea74" y="300.804855"/>
     <use style="fill:#1f77b4;stroke:#ffffff;stroke-width:0.48;" x="177.363636" xlink:href="#mc73eecea74" y="300.648255"/>
     <use style="fill:#1f77b4;stroke:#ffffff;stroke-width:0.48;" x="183" xlink:href="#mc73eecea74" y="300.262984"/>
     <use style="fill:#1f77b4;stroke:#ffffff;stroke-width:0.48;" x="188.636364" xlink:href="#mc73eecea74" y="300.412572"/>
     <use style="fill:#1f77b4;stroke:#ffffff;stroke-width:0.48;" x="194.272727" xlink:href="#mc73eecea74" y="299.919058"/>
     <use style="fill:#1f77b4;stroke:#ffffff;stroke-width:0.48;" x="199.909091" xlink:href="#mc73eecea74" y="299.065945"/>
     <use style="fill:#1f77b4;stroke:#ffffff;stroke-width:0.48;" x="205.545455" xlink:href="#mc73eecea74" y="299.032914"/>
     <use style="fill:#1f77b4;stroke:#ffffff;stroke-width:0.48;" x="211.181818" xlink:href="#mc73eecea74" y="298.728149"/>
     <use style="fill:#1f77b4;stroke:#ffffff;stroke-width:0.48;" x="216.818182" xlink:href="#mc73eecea74" y="298.225027"/>
     <use style="fill:#1f77b4;stroke:#ffffff;stroke-width:0.48;" x="222.454545" xlink:href="#mc73eecea74" y="297.381485"/>
     <use style="fill:#1f77b4;stroke:#ffffff;stroke-width:0.48;" x="228.090909" xlink:href="#mc73eecea74" y="297.287961"/>
     <use style="fill:#1f77b4;stroke:#ffffff;stroke-width:0.48;" x="233.727273" xlink:href="#mc73eecea74" y="297.112159"/>
     <use style="fill:#1f77b4;stroke:#ffffff;stroke-width:0.48;" x="239.363636" xlink:href="#mc73eecea74" y="296.500369"/>
     <use style="fill:#1f77b4;stroke:#ffffff;stroke-width:0.48;" x="245" xlink:href="#mc73eecea74" y="295.881083"/>
     <use style="fill:#1f77b4;stroke:#ffffff;stroke-width:0.48;" x="250.636364" xlink:href="#mc73eecea74" y="294.941412"/>
     <use style="fill:#1f77b4;stroke:#ffffff;stroke-width:0.48;" x="256.272727" xlink:href="#mc73eecea74" y="294.729864"/>
     <use style="fill:#1f77b4;stroke:#ffffff;stroke-width:0.48;" x="261.909091" xlink:href="#mc73eecea74" y="293.843034"/>
     <use style="fill:#1f77b4;stroke:#ffffff;stroke-width:0.48;" x="267.545455" xlink:href="#mc73eecea74" y="293.086114"/>
     <use style="fill:#1f77b4;stroke:#ffffff;stroke-width:0.48;" x="273.181818" xlink:href="#mc73eecea74" y="291.812025"/>
     <use style="fill:#1f77b4;stroke:#ffffff;stroke-width:0.48;" x="278.818182" xlink:href="#mc73eecea74" y="291.422297"/>
     <use style="fill:#1f77b4;stroke:#ffffff;stroke-width:0.48;" x="284.454545" xlink:href="#mc73eecea74" y="290.008882"/>
     <use style="fill:#1f77b4;stroke:#ffffff;stroke-width:0.48;" x="290.090909" xlink:href="#mc73eecea74" y="288.997948"/>
     <use style="fill:#1f77b4;stroke:#ffffff;stroke-width:0.48;" x="295.727273" xlink:href="#mc73eecea74" y="287.896051"/>
     <use style="fill:#1f77b4;stroke:#ffffff;stroke-width:0.48;" x="301.363636" xlink:href="#mc73eecea74" y="287.12304"/>
     <use style="fill:#1f77b4;stroke:#ffffff;stroke-width:0.48;" x="307" xlink:href="#mc73eecea74" y="283.967415"/>
     <use style="fill:#1f77b4;stroke:#ffffff;stroke-width:0.48;" x="312.636364" xlink:href="#mc73eecea74" y="284.531894"/>
     <use style="fill:#1f77b4;stroke:#ffffff;stroke-width:0.48;" x="318.272727" xlink:href="#mc73eecea74" y="283.296248"/>
     <use style="fill:#1f77b4;stroke:#ffffff;stroke-width:0.48;" x="323.909091" xlink:href="#mc73eecea74" y="282.348303"/>
     <use style="fill:#1f77b4;stroke:#ffffff;stroke-width:0.48;" x="329.545455" xlink:href="#mc73eecea74" y="280.715112"/>
     <use style="fill:#1f77b4;stroke:#ffffff;stroke-width:0.48;" x="335.181818" xlink:href="#mc73eecea74" y="279.660845"/>
     <use style="fill:#1f77b4;stroke:#ffffff;stroke-width:0.48;" x="340.818182" xlink:href="#mc73eecea74" y="277.983498"/>
     <use style="fill:#1f77b4;stroke:#ffffff;stroke-width:0.48;" x="346.454545" xlink:href="#mc73eecea74" y="273.589666"/>
     <use style="fill:#1f77b4;stroke:#ffffff;stroke-width:0.48;" x="352.090909" xlink:href="#mc73eecea74" y="275.337545"/>
     <use style="fill:#1f77b4;stroke:#ffffff;stroke-width:0.48;" x="357.727273" xlink:href="#mc73eecea74" y="273.961658"/>
     <use style="fill:#1f77b4;stroke:#ffffff;stroke-width:0.48;" x="363.363636" xlink:href="#mc73eecea74" y="270.977676"/>
     <use style="fill:#1f77b4;stroke:#ffffff;stroke-width:0.48;" x="369" xlink:href="#mc73eecea74" y="269.744635"/>
     <use style="fill:#1f77b4;stroke:#ffffff;stroke-width:0.48;" x="374.636364" xlink:href="#mc73eecea74" y="268.526633"/>
     <use style="fill:#1f77b4;stroke:#ffffff;stroke-width:0.48;" x="380.272727" xlink:href="#mc73eecea74" y="262.322665"/>
     <use style="fill:#1f77b4;stroke:#ffffff;stroke-width:0.48;" x="385.909091" xlink:href="#mc73eecea74" y="264.470099"/>
     <use style="fill:#1f77b4;stroke:#ffffff;stroke-width:0.48;" x="391.545455" xlink:href="#mc73eecea74" y="261.773956"/>
     <use style="fill:#1f77b4;stroke:#ffffff;stroke-width:0.48;" x="397.181818" xlink:href="#mc73eecea74" y="260.312545"/>
     <use style="fill:#1f77b4;stroke:#ffffff;stroke-width:0.48;" x="402.818182" xlink:href="#mc73eecea74" y="256.563323"/>
     <use style="fill:#1f77b4;stroke:#ffffff;stroke-width:0.48;" x="408.454545" xlink:href="#mc73eecea74" y="255.447987"/>
     <use style="fill:#1f77b4;stroke:#ffffff;stroke-width:0.48;" x="414.090909" xlink:href="#mc73eecea74" y="252.453948"/>
     <use style="fill:#1f77b4;stroke:#ffffff;stroke-width:0.48;" x="419.727273" xlink:href="#mc73eecea74" y="250.764488"/>
     <use style="fill:#1f77b4;stroke:#ffffff;stroke-width:0.48;" x="425.363636" xlink:href="#mc73eecea74" y="246.054934"/>
     <use style="fill:#1f77b4;stroke:#ffffff;stroke-width:0.48;" x="431" xlink:href="#mc73eecea74" y="245.79027"/>
     <use style="fill:#1f77b4;stroke:#ffffff;stroke-width:0.48;" x="436.636364" xlink:href="#mc73eecea74" y="242.555337"/>
     <use style="fill:#1f77b4;stroke:#ffffff;stroke-width:0.48;" x="442.272727" xlink:href="#mc73eecea74" y="239.989149"/>
     <use style="fill:#1f77b4;stroke:#ffffff;stroke-width:0.48;" x="447.909091" xlink:href="#mc73eecea74" y="236.61297"/>
     <use style="fill:#1f77b4;stroke:#ffffff;stroke-width:0.48;" x="453.545455" xlink:href="#mc73eecea74" y="230.911041"/>
     <use style="fill:#1f77b4;stroke:#ffffff;stroke-width:0.48;" x="459.181818" xlink:href="#mc73eecea74" y="229.323515"/>
     <use style="fill:#1f77b4;stroke:#ffffff;stroke-width:0.48;" x="464.818182" xlink:href="#mc73eecea74" y="225.382811"/>
     <use style="fill:#1f77b4;stroke:#ffffff;stroke-width:0.48;" x="470.454545" xlink:href="#mc73eecea74" y="224.513398"/>
     <use style="fill:#1f77b4;stroke:#ffffff;stroke-width:0.48;" x="476.090909" xlink:href="#mc73eecea74" y="220.521041"/>
     <use style="fill:#1f77b4;stroke:#ffffff;stroke-width:0.48;" x="481.727273" xlink:href="#mc73eecea74" y="216.448692"/>
     <use style="fill:#1f77b4;stroke:#ffffff;stroke-width:0.48;" x="487.363636" xlink:href="#mc73eecea74" y="212.551871"/>
     <use style="fill:#1f77b4;stroke:#ffffff;stroke-width:0.48;" x="493" xlink:href="#mc73eecea74" y="209.854036"/>
     <use style="fill:#1f77b4;stroke:#ffffff;stroke-width:0.48;" x="498.636364" xlink:href="#mc73eecea74" y="204.261812"/>
     <use style="fill:#1f77b4;stroke:#ffffff;stroke-width:0.48;" x="504.272727" xlink:href="#mc73eecea74" y="197.328899"/>
     <use style="fill:#1f77b4;stroke:#ffffff;stroke-width:0.48;" x="509.909091" xlink:href="#mc73eecea74" y="195.751886"/>
     <use style="fill:#1f77b4;stroke:#ffffff;stroke-width:0.48;" x="515.545455" xlink:href="#mc73eecea74" y="193.335628"/>
     <use style="fill:#1f77b4;stroke:#ffffff;stroke-width:0.48;" x="521.181818" xlink:href="#mc73eecea74" y="188.86834"/>
     <use style="fill:#1f77b4;stroke:#ffffff;stroke-width:0.48;" x="526.818182" xlink:href="#mc73eecea74" y="184.897925"/>
     <use style="fill:#1f77b4;stroke:#ffffff;stroke-width:0.48;" x="532.454545" xlink:href="#mc73eecea74" y="178.981613"/>
     <use style="fill:#1f77b4;stroke:#ffffff;stroke-width:0.48;" x="538.090909" xlink:href="#mc73eecea74" y="174.709509"/>
     <use style="fill:#1f77b4;stroke:#ffffff;stroke-width:0.48;" x="543.727273" xlink:href="#mc73eecea74" y="169.259902"/>
     <use style="fill:#1f77b4;stroke:#ffffff;stroke-width:0.48;" x="549.363636" xlink:href="#mc73eecea74" y="165.023451"/>
     <use style="fill:#1f77b4;stroke:#ffffff;stroke-width:0.48;" x="555" xlink:href="#mc73eecea74" y="160.080774"/>
     <use style="fill:#1f77b4;stroke:#ffffff;stroke-width:0.48;" x="560.636364" xlink:href="#mc73eecea74" y="154.160805"/>
     <use style="fill:#1f77b4;stroke:#ffffff;stroke-width:0.48;" x="566.272727" xlink:href="#mc73eecea74" y="149.188873"/>
     <use style="fill:#1f77b4;stroke:#ffffff;stroke-width:0.48;" x="571.909091" xlink:href="#mc73eecea74" y="142.85431"/>
     <use style="fill:#1f77b4;stroke:#ffffff;stroke-width:0.48;" x="577.545455" xlink:href="#mc73eecea74" y="136.591056"/>
     <use style="fill:#1f77b4;stroke:#ffffff;stroke-width:0.48;" x="583.181818" xlink:href="#mc73eecea74" y="128.501209"/>
     <use style="fill:#1f77b4;stroke:#ffffff;stroke-width:0.48;" x="588.818182" xlink:href="#mc73eecea74" y="115.68581"/>
     <use style="fill:#1f77b4;stroke:#ffffff;stroke-width:0.48;" x="594.454545" xlink:href="#mc73eecea74" y="118.587513"/>
     <use style="fill:#1f77b4;stroke:#ffffff;stroke-width:0.48;" x="600.090909" xlink:href="#mc73eecea74" y="109.089326"/>
     <use style="fill:#1f77b4;stroke:#ffffff;stroke-width:0.48;" x="605.727273" xlink:href="#mc73eecea74" y="98.707097"/>
     <use style="fill:#1f77b4;stroke:#ffffff;stroke-width:0.48;" x="611.363636" xlink:href="#mc73eecea74" y="95.506904"/>
     <use style="fill:#1f77b4;stroke:#ffffff;stroke-width:0.48;" x="617" xlink:href="#mc73eecea74" y="55.554545"/>
     <use style="fill:#1f77b4;stroke:#ffffff;stroke-width:0.48;" x="622.636364" xlink:href="#mc73eecea74" y="76.095021"/>
    </g>
   </g>
   <g id="patch_3">
    <path d="M 90 315 
L 90 43.2 
" style="fill:none;stroke:#cccccc;stroke-linecap:square;stroke-linejoin:miter;stroke-width:0.8;"/>
   </g>
   <g id="patch_4">
    <path d="M 648 315 
L 648 43.2 
" style="fill:none;stroke:#cccccc;stroke-linecap:square;stroke-linejoin:miter;stroke-width:0.8;"/>
   </g>
   <g id="patch_5">
    <path d="M 90 315 
L 648 315 
" style="fill:none;stroke:#cccccc;stroke-linecap:square;stroke-linejoin:miter;stroke-width:0.8;"/>
   </g>
   <g id="patch_6">
    <path d="M 90 43.2 
L 648 43.2 
" style="fill:none;stroke:#cccccc;stroke-linecap:square;stroke-linejoin:miter;stroke-width:0.8;"/>
   </g>
   <g id="text_14">
    <!-- Tiempos de ejecución de DP -->
    <g style="fill:#262626;" transform="translate(284.254687 37.2)scale(0.12 -0.12)">
     <defs>
      <path d="M -19 4666 
L 3928 4666 
L 3928 4134 
L 2272 4134 
L 2272 0 
L 1638 0 
L 1638 4134 
L -19 4134 
L -19 4666 
z
" id="DejaVuSans-54" transform="scale(0.015625)"/>
      <path d="M 2906 2969 
L 2906 4863 
L 3481 4863 
L 3481 0 
L 2906 0 
L 2906 525 
Q 2725 213 2448 61 
Q 2172 -91 1784 -91 
Q 1150 -91 751 415 
Q 353 922 353 1747 
Q 353 2572 751 3078 
Q 1150 3584 1784 3584 
Q 2172 3584 2448 3432 
Q 2725 3281 2906 2969 
z
M 947 1747 
Q 947 1113 1208 752 
Q 1469 391 1925 391 
Q 2381 391 2643 752 
Q 2906 1113 2906 1747 
Q 2906 2381 2643 2742 
Q 2381 3103 1925 3103 
Q 1469 3103 1208 2742 
Q 947 2381 947 1747 
z
" id="DejaVuSans-64" transform="scale(0.015625)"/>
      <path d="M 603 3500 
L 1178 3500 
L 1178 -63 
Q 1178 -731 923 -1031 
Q 669 -1331 103 -1331 
L -116 -1331 
L -116 -844 
L 38 -844 
Q 366 -844 484 -692 
Q 603 -541 603 -63 
L 603 3500 
z
M 603 4863 
L 1178 4863 
L 1178 4134 
L 603 4134 
L 603 4863 
z
" id="DejaVuSans-6a" transform="scale(0.015625)"/>
      <path d="M 3122 3366 
L 3122 2828 
Q 2878 2963 2633 3030 
Q 2388 3097 2138 3097 
Q 1578 3097 1268 2742 
Q 959 2388 959 1747 
Q 959 1106 1268 751 
Q 1578 397 2138 397 
Q 2388 397 2633 464 
Q 2878 531 3122 666 
L 3122 134 
Q 2881 22 2623 -34 
Q 2366 -91 2075 -91 
Q 1284 -91 818 406 
Q 353 903 353 1747 
Q 353 2603 823 3093 
Q 1294 3584 2113 3584 
Q 2378 3584 2631 3529 
Q 2884 3475 3122 3366 
z
" id="DejaVuSans-63" transform="scale(0.015625)"/>
      <path d="M 544 1381 
L 544 3500 
L 1119 3500 
L 1119 1403 
Q 1119 906 1312 657 
Q 1506 409 1894 409 
Q 2359 409 2629 706 
Q 2900 1003 2900 1516 
L 2900 3500 
L 3475 3500 
L 3475 0 
L 2900 0 
L 2900 538 
Q 2691 219 2414 64 
Q 2138 -91 1772 -91 
Q 1169 -91 856 284 
Q 544 659 544 1381 
z
M 1991 3584 
L 1991 3584 
z
" id="DejaVuSans-75" transform="scale(0.015625)"/>
      <path d="M 1959 3097 
Q 1497 3097 1228 2736 
Q 959 2375 959 1747 
Q 959 1119 1226 758 
Q 1494 397 1959 397 
Q 2419 397 2687 759 
Q 2956 1122 2956 1747 
Q 2956 2369 2687 2733 
Q 2419 3097 1959 3097 
z
M 1959 3584 
Q 2709 3584 3137 3096 
Q 3566 2609 3566 1747 
Q 3566 888 3137 398 
Q 2709 -91 1959 -91 
Q 1206 -91 779 398 
Q 353 888 353 1747 
Q 353 2609 779 3096 
Q 1206 3584 1959 3584 
z
M 2394 5119 
L 3016 5119 
L 1998 3944 
L 1519 3944 
L 2394 5119 
z
" id="DejaVuSans-f3" transform="scale(0.015625)"/>
      <path d="M 1259 4147 
L 1259 519 
L 2022 519 
Q 2988 519 3436 956 
Q 3884 1394 3884 2338 
Q 3884 3275 3436 3711 
Q 2988 4147 2022 4147 
L 1259 4147 
z
M 628 4666 
L 1925 4666 
Q 3281 4666 3915 4102 
Q 4550 3538 4550 2338 
Q 4550 1131 3912 565 
Q 3275 0 1925 0 
L 628 0 
L 628 4666 
z
" id="DejaVuSans-44" transform="scale(0.015625)"/>
      <path d="M 1259 4147 
L 1259 2394 
L 2053 2394 
Q 2494 2394 2734 2622 
Q 2975 2850 2975 3272 
Q 2975 3691 2734 3919 
Q 2494 4147 2053 4147 
L 1259 4147 
z
M 628 4666 
L 2053 4666 
Q 2838 4666 3239 4311 
Q 3641 3956 3641 3272 
Q 3641 2581 3239 2228 
Q 2838 1875 2053 1875 
L 1259 1875 
L 1259 0 
L 628 0 
L 628 4666 
z
" id="DejaVuSans-50" transform="scale(0.015625)"/>
     </defs>
     <use xlink:href="#DejaVuSans-54"/>
     <use x="57.958984" xlink:href="#DejaVuSans-69"/>
     <use x="85.742188" xlink:href="#DejaVuSans-65"/>
     <use x="147.265625" xlink:href="#DejaVuSans-6d"/>
     <use x="244.677734" xlink:href="#DejaVuSans-70"/>
     <use x="308.154297" xlink:href="#DejaVuSans-6f"/>
     <use x="369.335938" xlink:href="#DejaVuSans-73"/>
     <use x="421.435547" xlink:href="#DejaVuSans-20"/>
     <use x="453.222656" xlink:href="#DejaVuSans-64"/>
     <use x="516.699219" xlink:href="#DejaVuSans-65"/>
     <use x="578.222656" xlink:href="#DejaVuSans-20"/>
     <use x="610.009766" xlink:href="#DejaVuSans-65"/>
     <use x="671.533203" xlink:href="#DejaVuSans-6a"/>
     <use x="699.316406" xlink:href="#DejaVuSans-65"/>
     <use x="760.839844" xlink:href="#DejaVuSans-63"/>
     <use x="815.820312" xlink:href="#DejaVuSans-75"/>
     <use x="879.199219" xlink:href="#DejaVuSans-63"/>
     <use x="934.179688" xlink:href="#DejaVuSans-69"/>
     <use x="961.962891" xlink:href="#DejaVuSans-f3"/>
     <use x="1023.144531" xlink:href="#DejaVuSans-6e"/>
     <use x="1086.523438" xlink:href="#DejaVuSans-20"/>
     <use x="1118.310547" xlink:href="#DejaVuSans-64"/>
     <use x="1181.787109" xlink:href="#DejaVuSans-65"/>
     <use x="1243.310547" xlink:href="#DejaVuSans-20"/>
     <use x="1275.097656" xlink:href="#DejaVuSans-44"/>
     <use x="1352.099609" xlink:href="#DejaVuSans-50"/>
    </g>
   </g>
  </g>
 </g>
 <defs>
  <clipPath id="p70d457acad">
   <rect height="271.8" width="558" x="90" y="43.2"/>
  </clipPath>
 </defs>
</svg>
